0
SECTION
2
HEADER
0
ENDSEC
0
SECTION
2
TABLES
0
TABLE
2
LAYER
0
ENDTAB
0
ENDSEC
0
SECTION
2
ENTITIES
0
LINE
8
0
10
-0.84878
20
0.16108
11
-0.84878
21
20.16108
0
LINE
8
0
10
-0.84878
20
0.16108
11
-0.220565
21
20.151211
0
LINE
8
0
10
-0.84878
20
0.16108
11
0.40703
21
20.121615
0
LINE
8
0
10
-0.84878
20
0.16108
11
1.033386
21
20.072319
0
LINE
8
0
10
-0.84878
20
0.16108
11
1.657885
21
20.003374
0
LINE
8
0
10
-0.84878
20
0.16108
11
2.279909
21
19.914847
0
LINE
8
0
10
-0.84878
20
0.16108
11
2.898846
21
19.806825
0
LINE
8
0
10
-0.84878
20
0.16108
11
3.514085
21
19.679415
0
LINE
8
0
10
-0.84878
20
0.16108
11
4.125018
21
19.532743
0
LINE
8
0
10
-0.84878
20
0.16108
11
4.731042
21
19.366954
0
LINE
8
0
10
-0.84878
20
0.16108
11
5.33156
21
19.18221
0
LINE
8
0
10
-0.84878
20
0.16108
11
5.925978
21
18.978695
0
LINE
8
0
10
-0.84878
20
0.16108
11
6.513711
21
18.75661
0
LINE
8
0
10
-0.84878
20
0.16108
11
7.094178
21
18.516173
0
LINE
8
0
10
-0.84878
20
0.16108
11
7.666806
21
18.257621
0
LINE
8
0
10
-0.84878
20
0.16108
11
8.23103
21
17.98121
0
LINE
8
0
10
-0.84878
20
0.16108
11
8.786293
21
17.687214
0
LINE
8
0
10
-0.84878
20
0.16108
11
9.332048
21
17.375921
0
LINE
8
0
10
-0.84878
20
0.16108
11
9.867756
21
17.047639
0
LINE
8
0
10
-0.84878
20
0.16108
11
10.392888
21
16.702691
0
LINE
8
0
10
-0.84878
20
0.16108
11
10.906925
21
16.34142
0
LINE
8
0
10
-0.84878
20
0.16108
11
11.409361
21
15.96418
0
LINE
8
0
10
-0.84878
20
0.16108
11
11.8997
21
15.571345
0
LINE
8
0
10
-0.84878
20
0.16108
11
12.377457
21
15.163301
0
LINE
8
0
10
-0.84878
20
0.16108
11
12.842162
21
14.740453
0
LINE
8
0
10
-0.84878
20
0.16108
11
13.293356
21
14.303216
0
LINE
8
0
10
-0.84878
20
0.16108
11
13.730593
21
13.852022
0
LINE
8
0
10
-0.84878
20
0.16108
11
14.153441
21
13.387317
0
LINE
8
0
10
-0.84878
20
0.16108
11
14.561485
21
12.90956
0
LINE
8
0
10
-0.84878
20
0.16108
11
14.95432
21
12.419221
0
LINE
8
0
10
-0.84878
20
0.16108
11
15.33156
21
11.916785
0
LINE
8
0
10
-0.84878
20
0.16108
11
15.692831
21
11.402748
0
LINE
8
0
10
-0.84878
20
0.16108
11
16.037779
21
10.877616
0
LINE
8
0
10
-0.84878
20
0.16108
11
16.366061
21
10.341908
0
LINE
8
0
10
-0.84878
20
0.16108
11
16.677354
21
9.796153
0
LINE
8
0
10
-0.84878
20
0.16108
11
16.97135
21
9.24089
0
LINE
8
0
10
-0.84878
20
0.16108
11
17.247761
21
8.676666
0
LINE
8
0
10
-0.84878
20
0.16108
11
17.506313
21
8.104038
0
LINE
8
0
10
-0.84878
20
0.16108
11
17.74675
21
7.523571
0
LINE
8
0
10
-0.84878
20
0.16108
11
17.968835
21
6.935838
0
LINE
8
0
10
-0.84878
20
0.16108
11
18.17235
21
6.34142
0
LINE
8
0
10
-0.84878
20
0.16108
11
18.357094
21
5.740902
0
LINE
8
0
10
-0.84878
20
0.16108
11
18.522883
21
5.134878
0
LINE
8
0
10
-0.84878
20
0.16108
11
18.669555
21
4.523945
0
LINE
8
0
10
-0.84878
20
0.16108
11
18.796965
21
3.908706
0
LINE
8
0
10
-0.84878
20
0.16108
11
18.904987
21
3.289769
0
LINE
8
0
10
-0.84878
20
0.16108
11
18.993514
21
2.667745
0
LINE
8
0
10
-0.84878
20
0.16108
11
19.062459
21
2.043246
0
LINE
8
0
10
-0.84878
20
0.16108
11
19.111755
21
1.41689
0
LINE
8
0
10
-0.84878
20
0.16108
11
19.141351
21
0.789295
0
LINE
8
0
10
-0.84878
20
0.16108
11
19.15122
21
0.16108
0
LINE
8
0
10
-0.84878
20
0.16108
11
19.141351
21
-0.467135
0
LINE
8
0
10
-0.84878
20
0.16108
11
19.111755
21
-1.09473
0
LINE
8
0
10
-0.84878
20
0.16108
11
19.062459
21
-1.721086
0
LINE
8
0
10
-0.84878
20
0.16108
11
18.993514
21
-2.345585
0
LINE
8
0
10
-0.84878
20
0.16108
11
18.904987
21
-2.967609
0
LINE
8
0
10
-0.84878
20
0.16108
11
18.796965
21
-3.586546
0
LINE
8
0
10
-0.84878
20
0.16108
11
18.669555
21
-4.201785
0
LINE
8
0
10
-0.84878
20
0.16108
11
18.522883
21
-4.812718
0
LINE
8
0
10
-0.84878
20
0.16108
11
18.357094
21
-5.418742
0
LINE
8
0
10
-0.84878
20
0.16108
11
18.17235
21
-6.01926
0
LINE
8
0
10
-0.84878
20
0.16108
11
17.968835
21
-6.613678
0
LINE
8
0
10
-0.84878
20
0.16108
11
17.74675
21
-7.201411
0
LINE
8
0
10
-0.84878
20
0.16108
11
17.506313
21
-7.781878
0
LINE
8
0
10
-0.84878
20
0.16108
11
17.247761
21
-8.354506
0
LINE
8
0
10
-0.84878
20
0.16108
11
16.97135
21
-8.91873
0
LINE
8
0
10
-0.84878
20
0.16108
11
16.677354
21
-9.473993
0
LINE
8
0
10
-0.84878
20
0.16108
11
16.366061
21
-10.019748
0
LINE
8
0
10
-0.84878
20
0.16108
11
16.037779
21
-10.555456
0
LINE
8
0
10
-0.84878
20
0.16108
11
15.692831
21
-11.080588
0
LINE
8
0
10
-0.84878
20
0.16108
11
15.33156
21
-11.594625
0
LINE
8
0
10
-0.84878
20
0.16108
11
14.95432
21
-12.097061
0
LINE
8
0
10
-0.84878
20
0.16108
11
14.561485
21
-12.5874
0
LINE
8
0
10
-0.84878
20
0.16108
11
14.153441
21
-13.065157
0
LINE
8
0
10
-0.84878
20
0.16108
11
13.730593
21
-13.529862
0
LINE
8
0
10
-0.84878
20
0.16108
11
13.293356
21
-13.981056
0
LINE
8
0
10
-0.84878
20
0.16108
11
12.842162
21
-14.418293
0
LINE
8
0
10
-0.84878
20
0.16108
11
12.377457
21
-14.841141
0
LINE
8
0
10
-0.84878
20
0.16108
11
11.8997
21
-15.249185
0
LINE
8
0
10
-0.84878
20
0.16108
11
11.409361
21
-15.64202
0
LINE
8
0
10
-0.84878
20
0.16108
11
10.906925
21
-16.01926
0
LINE
8
0
10
-0.84878
20
0.16108
11
10.392888
21
-16.380531
0
LINE
8
0
10
-0.84878
20
0.16108
11
9.867756
21
-16.725479
0
LINE
8
0
10
-0.84878
20
0.16108
11
9.332048
21
-17.053761
0
LINE
8
0
10
-0.84878
20
0.16108
11
8.786293
21
-17.365054
0
LINE
8
0
10
-0.84878
20
0.16108
11
8.23103
21
-17.65905
0
LINE
8
0
10
-0.84878
20
0.16108
11
7.666806
21
-17.935461
0
LINE
8
0
10
-0.84878
20
0.16108
11
7.094178
21
-18.194013
0
LINE
8
0
10
-0.84878
20
0.16108
11
6.513711
21
-18.43445
0
LINE
8
0
10
-0.84878
20
0.16108
11
5.925978
21
-18.656535
0
LINE
8
0
10
-0.84878
20
0.16108
11
5.33156
21
-18.86005
0
LINE
8
0
10
-0.84878
20
0.16108
11
4.731042
21
-19.044794
0
LINE
8
0
10
-0.84878
20
0.16108
11
4.125018
21
-19.210583
0
LINE
8
0
10
-0.84878
20
0.16108
11
3.514085
21
-19.357255
0
LINE
8
0
10
-0.84878
20
0.16108
11
2.898846
21
-19.484665
0
LINE
8
0
10
-0.84878
20
0.16108
11
2.279909
21
-19.592687
0
LINE
8
0
10
-0.84878
20
0.16108
11
1.657885
21
-19.681214
0
LINE
8
0
10
-0.84878
20
0.16108
11
1.033386
21
-19.750159
0
LINE
8
0
10
-0.84878
20
0.16108
11
0.40703
21
-19.799455
0
LINE
8
0
10
-0.84878
20
0.16108
11
-0.220565
21
-19.829051
0
LINE
8
0
10
-0.84878
20
0.16108
11
-0.84878
21
-19.83892
0
LINE
8
0
10
-0.84878
20
0.16108
11
-1.476995
21
-19.829051
0
LINE
8
0
10
-0.84878
20
0.16108
11
-2.10459
21
-19.799455
0
LINE
8
0
10
-0.84878
20
0.16108
11
-2.730946
21
-19.750159
0
LINE
8
0
10
-0.84878
20
0.16108
11
-3.355445
21
-19.681214
0
LINE
8
0
10
-0.84878
20
0.16108
11
-3.977469
21
-19.592687
0
LINE
8
0
10
-0.84878
20
0.16108
11
-4.596406
21
-19.484665
0
LINE
8
0
10
-0.84878
20
0.16108
11
-5.211645
21
-19.357255
0
LINE
8
0
10
-0.84878
20
0.16108
11
-5.822578
21
-19.210583
0
LINE
8
0
10
-0.84878
20
0.16108
11
-6.428602
21
-19.044794
0
LINE
8
0
10
-0.84878
20
0.16108
11
-7.02912
21
-18.86005
0
LINE
8
0
10
-0.84878
20
0.16108
11
-7.623538
21
-18.656535
0
LINE
8
0
10
-0.84878
20
0.16108
11
-8.211271
21
-18.43445
0
LINE
8
0
10
-0.84878
20
0.16108
11
-8.791738
21
-18.194013
0
LINE
8
0
10
-0.84878
20
0.16108
11
-9.364366
21
-17.935461
0
LINE
8
0
10
-0.84878
20
0.16108
11
-9.92859
21
-17.65905
0
LINE
8
0
10
-0.84878
20
0.16108
11
-10.483853
21
-17.365054
0
LINE
8
0
10
-0.84878
20
0.16108
11
-11.029608
21
-17.053761
0
LINE
8
0
10
-0.84878
20
0.16108
11
-11.565316
21
-16.725479
0
LINE
8
0
10
-0.84878
20
0.16108
11
-12.090448
21
-16.380531
0
LINE
8
0
10
-0.84878
20
0.16108
11
-12.604485
21
-16.01926
0
LINE
8
0
10
-0.84878
20
0.16108
11
-13.106921
21
-15.64202
0
LINE
8
0
10
-0.84878
20
0.16108
11
-13.59726
21
-15.249185
0
LINE
8
0
10
-0.84878
20
0.16108
11
-14.075017
21
-14.841141
0
LINE
8
0
10
-0.84878
20
0.16108
11
-14.539722
21
-14.418293
0
LINE
8
0
10
-0.84878
20
0.16108
11
-14.990916
21
-13.981056
0
LINE
8
0
10
-0.84878
20
0.16108
11
-15.428153
21
-13.529862
0
LINE
8
0
10
-0.84878
20
0.16108
11
-15.851001
21
-13.065157
0
LINE
8
0
10
-0.84878
20
0.16108
11
-16.259045
21
-12.5874
0
LINE
8
0
10
-0.84878
20
0.16108
11
-16.65188
21
-12.097061
0
LINE
8
0
10
-0.84878
20
0.16108
11
-17.02912
21
-11.594625
0
LINE
8
0
10
-0.84878
20
0.16108
11
-17.390391
21
-11.080588
0
LINE
8
0
10
-0.84878
20
0.16108
11
-17.735339
21
-10.555456
0
LINE
8
0
10
-0.84878
20
0.16108
11
-18.063621
21
-10.019748
0
LINE
8
0
10
-0.84878
20
0.16108
11
-18.374914
21
-9.473993
0
LINE
8
0
10
-0.84878
20
0.16108
11
-18.66891
21
-8.91873
0
LINE
8
0
10
-0.84878
20
0.16108
11
-18.945321
21
-8.354506
0
LINE
8
0
10
-0.84878
20
0.16108
11
-19.203873
21
-7.781878
0
LINE
8
0
10
-0.84878
20
0.16108
11
-19.44431
21
-7.201411
0
LINE
8
0
10
-0.84878
20
0.16108
11
-19.666395
21
-6.613678
0
LINE
8
0
10
-0.84878
20
0.16108
11
-19.86991
21
-6.01926
0
LINE
8
0
10
-0.84878
20
0.16108
11
-20.054654
21
-5.418742
0
LINE
8
0
10
-0.84878
20
0.16108
11
-20.220443
21
-4.812718
0
LINE
8
0
10
-0.84878
20
0.16108
11
-20.367115
21
-4.201785
0
LINE
8
0
10
-0.84878
20
0.16108
11
-20.494525
21
-3.586546
0
LINE
8
0
10
-0.84878
20
0.16108
11
-20.602547
21
-2.967609
0
LINE
8
0
10
-0.84878
20
0.16108
11
-20.691074
21
-2.345585
0
LINE
8
0
10
-0.84878
20
0.16108
11
-20.760019
21
-1.721086
0
LINE
8
0
10
-0.84878
20
0.16108
11
-20.809315
21
-1.09473
0
LINE
8
0
10
-0.84878
20
0.16108
11
-20.838911
21
-0.467135
0
LINE
8
0
10
-0.84878
20
0.16108
11
-20.84878
21
0.16108
0
LINE
8
0
10
-0.84878
20
0.16108
11
-20.838911
21
0.789295
0
LINE
8
0
10
-0.84878
20
0.16108
11
-20.809315
21
1.41689
0
LINE
8
0
10
-0.84878
20
0.16108
11
-20.760019
21
2.043246
0
LINE
8
0
10
-0.84878
20
0.16108
11
-20.691074
21
2.667745
0
LINE
8
0
10
-0.84878
20
0.16108
11
-20.602547
21
3.289769
0
LINE
8
0
10
-0.84878
20
0.16108
11
-20.494525
21
3.908706
0
LINE
8
0
10
-0.84878
20
0.16108
11
-20.367115
21
4.523945
0
LINE
8
0
10
-0.84878
20
0.16108
11
-20.220443
21
5.134878
0
LINE
8
0
10
-0.84878
20
0.16108
11
-20.054654
21
5.740902
0
LINE
8
0
10
-0.84878
20
0.16108
11
-19.86991
21
6.34142
0
LINE
8
0
10
-0.84878
20
0.16108
11
-19.666395
21
6.935838
0
LINE
8
0
10
-0.84878
20
0.16108
11
-19.44431
21
7.523571
0
LINE
8
0
10
-0.84878
20
0.16108
11
-19.203873
21
8.104038
0
LINE
8
0
10
-0.84878
20
0.16108
11
-18.945321
21
8.676666
0
LINE
8
0
10
-0.84878
20
0.16108
11
-18.66891
21
9.24089
0
LINE
8
0
10
-0.84878
20
0.16108
11
-18.374914
21
9.796153
0
LINE
8
0
10
-0.84878
20
0.16108
11
-18.063621
21
10.341908
0
LINE
8
0
10
-0.84878
20
0.16108
11
-17.735339
21
10.877616
0
LINE
8
0
10
-0.84878
20
0.16108
11
-17.390391
21
11.402748
0
LINE
8
0
10
-0.84878
20
0.16108
11
-17.02912
21
11.916785
0
LINE
8
0
10
-0.84878
20
0.16108
11
-16.65188
21
12.419221
0
LINE
8
0
10
-0.84878
20
0.16108
11
-16.259045
21
12.90956
0
LINE
8
0
10
-0.84878
20
0.16108
11
-15.851001
21
13.387317
0
LINE
8
0
10
-0.84878
20
0.16108
11
-15.428153
21
13.852022
0
LINE
8
0
10
-0.84878
20
0.16108
11
-14.990916
21
14.303216
0
LINE
8
0
10
-0.84878
20
0.16108
11
-14.539722
21
14.740453
0
LINE
8
0
10
-0.84878
20
0.16108
11
-14.075017
21
15.163301
0
LINE
8
0
10
-0.84878
20
0.16108
11
-13.59726
21
15.571345
0
LINE
8
0
10
-0.84878
20
0.16108
11
-13.106921
21
15.96418
0
LINE
8
0
10
-0.84878
20
0.16108
11
-12.604485
21
16.34142
0
LINE
8
0
10
-0.84878
20
0.16108
11
-12.090448
21
16.702691
0
LINE
8
0
10
-0.84878
20
0.16108
11
-11.565316
21
17.047639
0
LINE
8
0
10
-0.84878
20
0.16108
11
-11.029608
21
17.375921
0
LINE
8
0
10
-0.84878
20
0.16108
11
-10.483853
21
17.687214
0
LINE
8
0
10
-0.84878
20
0.16108
11
-9.92859
21
17.98121
0
LINE
8
0
10
-0.84878
20
0.16108
11
-9.364366
21
18.257621
0
LINE
8
0
10
-0.84878
20
0.16108
11
-8.791738
21
18.516173
0
LINE
8
0
10
-0.84878
20
0.16108
11
-8.211271
21
18.75661
0
LINE
8
0
10
-0.84878
20
0.16108
11
-7.623538
21
18.978695
0
LINE
8
0
10
-0.84878
20
0.16108
11
-7.02912
21
19.18221
0
LINE
8
0
10
-0.84878
20
0.16108
11
-6.428602
21
19.366954
0
LINE
8
0
10
-0.84878
20
0.16108
11
-5.822578
21
19.532743
0
LINE
8
0
10
-0.84878
20
0.16108
11
-5.211645
21
19.679415
0
LINE
8
0
10
-0.84878
20
0.16108
11
-4.596406
21
19.806825
0
LINE
8
0
10
-0.84878
20
0.16108
11
-3.977469
21
19.914847
0
LINE
8
0
10
-0.84878
20
0.16108
11
-3.355445
21
20.003374
0
LINE
8
0
10
-0.84878
20
0.16108
11
-2.730946
21
20.072319
0
LINE
8
0
10
-0.84878
20
0.16108
11
-2.10459
21
20.121615
0
LINE
8
0
10
-0.84878
20
0.16108
11
-1.476995
21
20.151211
0
ENDSEC
0
EOF