0
SECTION
2
HEADER
0
ENDSEC
0
SECTION
2
TABLES
0
TABLE
2
LAYER
0
ENDTAB
0
ENDSEC
0
SECTION
2
ENTITIES
0
ARC
8
0
10
80.827764
20
0.460619
40
0.417324
50
300.531171
51
314.333743
0
ARC
8
0
10
79.608716
20
0.821238
40
1.715643
50
351.674006
51
358.423653
0
ARC
8
0
10
82.42993
20
0.999383
40
0.350108
50
259.848701
51
270.297079
0
ARC
8
0
10
80.289044
20
0.718476
40
1.027609
50
341.350183
51
351.85048
0
ARC
8
0
10
83.596408
20
0.910118
40
0.948013
50
222.659179
51
231.023864
0
ARC
8
0
10
82.332277
20
4.249894
40
0.39292
50
22.939594
51
38.111171
0
ARC
8
0
10
81.414212
20
3.990035
40
1.350998
50
4.569745
51
11.749545
0
ARC
8
0
10
82.025999
20
4.120171
40
0.725538
50
11.526252
51
22.94658
0
ARC
8
0
10
82.440055
20
0.896434
40
0.266046
50
198.71196
51
213.662376
0
ARC
8
0
10
64.742859
20
35.940509
40
35.555465
50
299.700589
51
299.745458
0
ARC
8
0
10
78.647728
20
11.391512
40
7.341917
50
298.979446
51
299.284141
0
ARC
8
0
10
87.911945
20
-4.653715
40
11.185306
50
118.586759
51
119.620231
0
ARC
8
0
10
85.622108
20
-0.447447
40
6.396148
50
117.182121
51
118.604362
0
ARC
8
0
10
84.172275
20
2.384052
40
3.215052
50
114.862489
51
117.249339
0
ARC
8
0
10
81.766938
20
5.696405
40
0.848458
50
296.828939
51
298.41321
0
ARC
8
0
10
80.425702
20
4.243371
40
0.899184
50
-0.340615
51
12.039435
0
ARC
8
0
10
71.370161
20
1.433971
40
0.702482
50
305.203351
51
308.705047
0
ARC
8
0
10
69.74028
20
27.173624
40
25.464258
50
299.538672
51
299.706928
0
ARC
8
0
10
82.98961
20
5.263263
40
0.095392
50
90.59512
51
99.122923
0
ARC
8
0
10
82.984253
20
4.997273
40
0.361405
50
55.524917
51
89.308119
0
ARC
8
0
10
82.9213
20
4.537549
40
0.672331
50
0.25359
51
13.00262
0
LINE
8
0
10
82.76862
20
0.5324
11
82.76862
21
3.90115
0
LINE
8
0
10
82.431745
20
0.43615
11
81.02237
21
-0.1551
0
ARC
8
0
10
81.097417
20
3.204877
40
2.253592
50
71.478635
51
72.465937
0
ARC
8
0
10
81.646532
20
4.892063
40
0.48471
50
52.403055
51
59.005972
0
ARC
8
0
10
81.765788
20
4.908821
40
0.392909
50
27.916185
51
46.462695
0
ARC
8
0
10
82.186582
20
4.25161
40
1.46448
50
25.651942
51
33.969895
0
ARC
8
0
10
84.041837
20
1.188286
40
0.563865
50
251.321029
51
258.611451
0
ARC
8
0
10
82.651498
20
4.472083
40
0.949943
50
13.188666
51
25.804076
0
ARC
8
0
10
82.540777
20
4.503878
40
1.029837
50
33.34098
51
42.212147
0
ARC
8
0
10
83.460932
20
0.738347
40
0.729261
50
230.810059
51
247.437606
0
ARC
8
0
10
51.552435
20
56.668375
40
59.524052
50
300.285204
51
300.471179
0
ARC
8
0
10
83.037047
20
5.019635
40
0.343557
50
100.492356
51
111.43717
0
LINE
8
0
10
82.14987
20
4.650525
11
82.14987
21
1.12365
0
ARC
8
0
10
81.411671
20
4.583975
40
0.872107
50
48.201557
51
52.526613
0
ARC
8
0
10
82.847589
20
4.7855
40
0.613382
50
41.983646
51
56.198398
0
LINE
8
0
10
83.930495
20
0.484275
11
83.18112
21
0.0649
0
ARC
8
0
10
71.763368
20
1.189727
40
0.565664
50
188.594012
51
205.111069
0
ARC
8
0
10
83.966569
20
1.001462
40
0.362956
50
193.968615
51
253.13156
0
ARC
8
0
10
72.283425
20
1.275868
40
1.092778
50
179.546184
51
188.985125
0
ARC
8
0
10
83.161408
20
1.068039
40
1.00975
50
183.822236
51
189.814297
0
ARC
8
0
10
83.879075
20
1.118854
40
1.729211
50
179.841023
51
183.916917
0
ARC
8
0
10
83.364446
20
4.136456
40
1.285422
50
110.633094
51
115.032952
0
ARC
8
0
10
80.638047
20
4.288691
40
0.682055
50
12.036912
51
30.017705
0
ARC
8
0
10
82.259897
20
4.015286
40
0.626764
50
66.55231
51
79.992169
0
ARC
8
0
10
80.54618
20
5.966279
40
1.113387
50
294.632103
51
298.087713
0
ARC
8
0
10
82.173927
20
3.554215
40
1.095765
50
79.754759
51
88.130422
0
ARC
8
0
10
80.655734
20
0.641415
40
0.666875
50
314.05031
51
321.896613
0
ARC
8
0
10
82.373912
20
4.269424
40
0.34826
50
39.81116
51
67.123881
0
ARC
8
0
10
80.821565
20
2.380455
40
3.122944
50
70.690229
51
71.484498
0
ARC
8
0
10
83.187071
20
0.593186
40
0.429468
50
201.817031
51
214.852947
0
ARC
8
0
10
82.40249
20
0.875055
40
0.222954
50
214.441033
51
261.15831
0
ARC
8
0
10
83.40767
20
0.744155
40
0.696773
50
214.673971
51
223.139974
0
ARC
8
0
10
80.455106
20
3.908883
40
2.313526
50
-0.191562
51
4.68067
0
LINE
8
0
10
80.987995
20
4.7949
11
80.987995
21
4.94615
0
ARC
8
0
10
84.224784
20
1.074464
40
0.631213
50
179.279773
51
194.741391
0
ARC
8
0
10
69.673532
20
25.492632
40
23.464276
50
299.638704
51
300.054045
0
ARC
8
0
10
78.988552
20
0.847731
40
2.336318
50
-1.807452
51
0.022485
0
ARC
8
0
10
75.349158
20
17.272882
40
14.085143
50
299.284991
51
299.544037
0
ARC
8
0
10
81.322631
20
3.920114
40
1.503733
50
72.43794
51
73.989882
0
ARC
8
0
10
80.909295
20
0.317658
40
0.25278
50
270.697028
51
301.074086
0
ARC
8
0
10
82.150689
20
3.105163
40
1.545368
50
87.812562
51
90.030376
0
ARC
8
0
10
82.696009
20
0.985803
40
0.537147
50
189.632264
51
198.982163
0
ARC
8
0
10
80.708336
20
0.573622
40
0.584017
50
323.946321
51
341.660911
0
ARC
8
0
10
83.040034
20
0.535243
40
0.27143
50
180.600497
51
201.997576
0
ARC
8
0
10
80.966061
20
4.525713
40
0.275159
50
41.692747
51
64.479369
0
ARC
8
0
10
61.592878
20
39.472988
40
39.611946
50
300.043406
51
300.287418
0
ARC
8
0
10
71.519492
20
1.070355
40
0.294212
50
204.215947
51
228.499225
0
ARC
8
0
10
6.341566
20
1.106485
40
0.309848
50
193.980885
51
208.197045
0
ARC
8
0
10
6.248346
20
1.058722
40
0.205134
50
208.741383
51
217.868077
0
ARC
8
0
10
4.49026
20
4.329947
40
0.666122
50
8.355091
51
16.532288
0
LINE
8
0
10
6.02206
20
4.568575
11
6.02206
21
1.208075
0
ARC
8
0
10
-108.217098
20
260.181229
40
283.675287
50
293.559998
51
293.614378
0
ARC
8
0
10
4.298525
20
0.862449
40
0.86163
50
341.136806
51
353.30892
0
LINE
8
0
10
18.2886
20
4.666365
11
18.2886
21
1.20824
0
LINE
8
0
10
16.01985
20
0.97449
11
16.01985
21
4.363865
0
ARC
8
0
10
4.935953
20
4.489826
40
0.191279
50
26.685267
51
73.280041
0
ARC
8
0
10
15.120682
20
4.369211
40
0.899184
50
-0.340615
51
12.039435
0
ARC
8
0
10
4.886805
20
4.350978
40
0.33847
50
72.074057
51
86.180394
0
ARC
8
0
10
15.529354
20
4.530311
40
0.45414
50
29.760583
51
42.064006
0
ARC
8
0
10
15.661041
20
4.651554
40
0.27516
50
41.692747
51
64.479369
0
LINE
8
0
10
5.16406
20
0.929225
11
5.16406
21
4.196775
0
LINE
8
0
10
15.682975
20
4.92074
11
15.682975
21
5.07199
0
LINE
8
0
10
15.71735
20
-0.02926
11
15.60735
21
0.19074
0
ARC
8
0
10
4.604182
20
0.772106
40
0.548614
50
311.760113
51
318.317647
0
ARC
8
0
10
-43.029789
20
110.687423
40
120.587021
50
293.488153
51
293.560292
0
ARC
8
0
10
3.821367
20
0.92389
40
1.342704
50
-6.922605
51
0.227677
0
ARC
8
0
10
15.684295
20
4.692814
40
0.227931
50
65.285456
51
90.331269
0
ARC
8
0
10
6.937392
20
1.204467
40
0.915343
50
179.773983
51
185.713599
0
LINE
8
0
10
6.30806
20
0.850575
11
6.30806
21
0.650375
0
ARC
8
0
10
3.961452
20
4.24864
40
1.201134
50
3.389956
51
8.526958
0
ARC
8
0
10
6.282199
20
1.169514
40
0.317361
50
249.40345
51
263.291983
0
ARC
8
0
10
4.845192
20
0.030332
40
0.016858
50
284.663519
51
293.650339
0
ARC
8
0
10
15.333026
20
4.414531
40
0.682055
50
12.036912
51
30.017705
0
ARC
8
0
10
4.78
20
4.415538
40
0.364001
50
16.594694
51
26.108825
0
ARC
8
0
10
-9.421445
20
33.320001
40
36.235149
50
293.29487
51
293.506923
0
ARC
8
0
10
4.733069
20
0.411493
40
0.168679
50
270.676805
51
285.579762
0
ARC
8
0
10
15.658192
20
5.175109
40
0.106056
50
283.514581
51
296.318231
0
ARC
8
0
10
8.02571
20
4.568723
40
2.00365
50
179.175076
51
180.00424
0
ARC
8
0
10
4.608406
20
0.753406
40
0.533143
50
319.516623
51
341.459069
0
ARC
8
0
10
6.619558
20
4.783383
40
0.57249
50
144.972246
51
162.488511
0
ARC
8
0
10
4.702945
20
0.524348
40
0.285477
50
285.320567
51
294.384386
0
LINE
8
0
10
18.625475
20
0.610115
11
17.8761
21
0.19074
0
LINE
8
0
10
16.84485
20
4.776365
11
16.84485
21
1.24949
0
ARC
8
0
10
3.201555
20
4.20118
40
1.96251
50
-0.128642
51
3.461275
0
ARC
8
0
10
4.871631
20
4.191797
40
0.498328
50
85.658277
51
90.082624
0
ARC
8
0
10
4.540915
20
0.84557
40
0.645551
50
301.112551
51
311.606117
0
ARC
8
0
10
6.54951
20
4.851896
40
0.472411
50
121.92702
51
135.880926
0
LINE
8
0
10
4.87091
20
4.911775
11
6.33666
21
5.526675
0
ARC
8
0
10
-229.351331
20
537.302172
40
586.114573
50
293.612608
51
293.643527
0
LINE
8
0
10
4.84946
20
0.014025
11
4.73506
21
0.242825
0
ARC
8
0
10
4.561887
20
0.806322
40
0.601117
50
300.455567
51
301.333928
0
ARC
8
0
10
6.990769
20
4.661365
40
0.963226
50
162.211186
51
172.70121
0
LINE
8
0
10
6.33666
20
5.526675
11
6.45106
21
5.297875
0
ARC
8
0
10
6.454267
20
5.010148
40
0.287743
50
90.638912
51
122.495902
0
LINE
8
0
10
4.87091
20
4.690125
11
4.87091
21
4.911775
0
ARC
8
0
10
7.579
20
4.58172
40
1.556813
50
172.543941
51
179.416553
0
ARC
8
0
10
4.630813
20
0.685449
40
0.461989
50
294.283012
51
300.685233
0
LINE
8
0
10
18.625475
20
0.761365
11
18.625475
21
0.610115
0
ARC
8
0
10
3.817555
20
2.540544
40
2.729271
50
292.271948
51
293.554522
0
ARC
8
0
10
16.461918
20
5.822245
40
0.848457
50
296.828939
51
298.41321
0
ARC
8
0
10
22.606925
20
-4.527875
40
11.185306
50
118.586759
51
119.620231
0
ARC
8
0
10
18.291388
20
1.035958
40
0.948013
50
222.659179
51
231.023864
0
ARC
8
0
10
16.467517
20
5.230021
40
0.237996
50
58.712827
51
69.920642
0
ARC
8
0
10
17.735014
20
0.661083
40
0.271431
50
180.600497
51
201.997576
0
ARC
8
0
10
17.027258
20
4.375734
40
0.39292
50
22.939594
51
38.111171
0
ARC
8
0
10
-382.24923
20
886.58565
40
967.397557
50
293.642637
51
293.659496
0
ARC
8
0
10
18.574056
20
1.244694
40
1.729211
50
179.841023
51
183.916917
0
ARC
8
0
10
6.573622
20
1.166929
40
0.549637
50
185.595675
51
194.250863
0
ARC
8
0
10
6.236417
20
1.053074
40
0.192269
50
218.722623
51
249.968836
0
LINE
8
0
10
17.126725
20
0.56199
11
15.71735
21
-0.02926
0
ARC
8
0
10
18.155912
20
0.864187
40
0.729262
50
230.810059
51
247.437606
0
LINE
8
0
10
28.44677
20
0.67892
11
28.44677
21
0.479545
0
ARC
8
0
10
-572.433928
20
1320.673057
40
1441.319594
50
293.659479
51
293.674249
0
ARC
8
0
10
6.306118
20
1.348187
40
0.497618
50
262.959822
51
270.22335
0
ARC
8
0
10
17.235757
20
4.629719
40
1.029837
50
33.34098
51
42.212147
0
ARC
8
0
10
17.732028
20
5.145475
40
0.343557
50
100.492356
51
111.43717
0
ARC
8
0
10
6.734497
20
4.666359
40
0.734387
50
135.536382
51
142.642525
0
ARC
8
0
10
17.346477
20
4.597923
40
0.949943
50
13.188666
51
25.804076
0
ARC
8
0
10
-3.712143
20
39.598828
40
39.611946
50
300.043406
51
300.287418
0
ARC
8
0
10
13.485032
20
9.433286
40
4.887943
50
297.808853
51
299.155121
0
LINE
8
0
10
17.126725
20
0.775115
11
17.126725
21
0.56199
0
ARC
8
0
10
4.368512
20
25.618472
40
23.464276
50
299.638704
51
300.054045
0
LINE
8
0
10
27.22302
20
4.659545
11
27.22302
21
1.82017
0
ARC
8
0
10
10.044138
20
17.398722
40
14.085142
50
299.284991
51
299.544037
0
ARC
8
0
10
16.017611
20
4.045954
40
1.503733
50
72.43794
51
73.989882
0
LINE
8
0
10
17.4636
20
0.65824
11
17.4636
21
4.02699
0
ARC
8
0
10
15.792398
20
3.330717
40
2.253592
50
71.478635
51
72.465937
0
ARC
8
0
10
16.516285
20
5.06732
40
0.32857
50
-0.384627
51
27.416308
0
ARC
8
0
10
16.845669
20
3.230997
40
1.545368
50
87.812562
51
90.030376
0
ARC
8
0
10
17.135036
20
1.022269
40
0.266046
50
198.71196
51
213.662376
0
ARC
8
0
10
-13.752585
20
56.794215
40
59.524053
50
300.285204
51
300.471179
0
ARC
8
0
10
17.09747
20
1.000895
40
0.222953
50
214.441033
51
261.15831
0
ARC
8
0
10
16.868907
20
3.680056
40
1.095765
50
79.754759
51
88.130422
0
ARC
8
0
10
18.661549
20
1.127302
40
0.362956
50
193.968615
51
253.13156
0
ARC
8
0
10
13.342709
20
11.517352
40
7.341917
50
298.979446
51
299.284141
0
ARC
8
0
10
17.882051
20
0.719026
40
0.429467
50
201.817031
51
214.852947
0
ARC
8
0
10
18.867255
20
2.509892
40
3.215053
50
114.862489
51
117.249339
0
ARC
8
0
10
15.350715
20
0.767255
40
0.666875
50
314.05031
51
321.896613
0
ARC
8
0
10
18.736817
20
1.314126
40
0.563866
50
251.321029
51
258.611451
0
ARC
8
0
10
16.109192
20
4.115875
40
1.350998
50
4.569745
51
11.749545
0
ARC
8
0
10
16.720979
20
4.246011
40
0.725538
50
11.526252
51
22.94658
0
ARC
8
0
10
15.365862
20
7.859874
40
3.16217
50
298.312903
51
299.019171
0
ARC
8
0
10
18.10265
20
0.869996
40
0.696773
50
214.673971
51
223.139974
0
ARC
8
0
10
16.460769
20
5.034661
40
0.392909
50
27.916185
51
46.462695
0
ARC
8
0
10
9.941244
20
15.821173
40
12.192966
50
299.074204
51
299.645513
0
ARC
8
0
10
18.919763
20
1.200303
40
0.631213
50
179.279773
51
194.741391
0
ARC
8
0
10
17.856388
20
1.193879
40
1.00975
50
183.822236
51
189.814297
0
ARC
8
0
10
4.435261
20
27.299464
40
25.464257
50
299.538672
51
299.706928
0
ARC
8
0
10
17.61628
20
4.663389
40
0.672331
50
0.25359
51
13.00262
0
ARC
8
0
10
20.317088
20
-0.321607
40
6.396148
50
117.182121
51
118.604362
0
ARC
8
0
10
15.403316
20
0.699463
40
0.584017
50
323.946321
51
341.660911
0
ARC
8
0
10
-0.56216
20
36.066349
40
35.555465
50
299.700589
51
299.745458
0
ARC
8
0
10
17.12491
20
1.125217
40
0.350108
50
259.848701
51
270.297079
0
ARC
8
0
10
18.059426
20
4.262296
40
1.285422
50
110.633094
51
115.032952
0
ARC
8
0
10
17.068892
20
4.395264
40
0.34826
50
39.81116
51
67.123881
0
ARC
8
0
10
17.542569
20
4.91134
40
0.613382
50
41.983646
51
56.198398
0
ARC
8
0
10
15.516545
20
2.506295
40
3.122944
50
70.690229
51
71.484498
0
ARC
8
0
10
27.912648
20
1.455811
40
1.540286
50
202.654516
51
218.511003
0
ARC
8
0
10
15.150086
20
4.034723
40
2.313525
50
-0.191562
51
4.68067
0
ARC
8
0
10
15.522743
20
0.586459
40
0.417323
50
300.531171
51
314.333743
0
ARC
8
0
10
27.959102
20
1.470513
40
1.585881
50
217.881658
51
224.235199
0
ARC
8
0
10
29.324543
20
-2.272512
40
2.891405
50
108.854584
51
110.299076
0
ARC
8
0
10
16.881562
20
4.37745
40
1.464479
50
25.651942
51
33.969895
0
ARC
8
0
10
33.899294
20
-12.7611
40
19.083724
50
109.32405
51
110.002388
0
ARC
8
0
10
28.366448
20
3.881977
40
1.541843
50
102.493712
51
106.621563
0
ARC
8
0
10
28.614146
20
-0.181929
40
0.683435
50
105.518039
51
109.134139
0
ARC
8
0
10
27.276376
20
3.223539
40
1.783243
50
113.634146
51
117.108374
0
ARC
8
0
10
37.384919
20
-22.360514
40
29.296377
50
109.986338
51
110.37457
0
ARC
8
0
10
17.390989
20
1.111638
40
0.537147
50
189.632264
51
198.982163
0
ARC
8
0
10
28.086553
20
5.366284
40
0.029012
50
38.178809
51
84.630459
0
ARC
8
0
10
15.780363
20
4.341221
40
1.364374
50
45.808289
51
48.303377
0
ARC
8
0
10
29.835504
20
1.755605
40
2.611229
50
182.300696
51
185.735305
0
ARC
8
0
10
27.441969
20
5.036548
40
0.758115
50
18.358584
51
22.222082
0
ARC
8
0
10
15.604275
20
0.443498
40
0.25278
50
270.697028
51
301.074086
0
ARC
8
0
10
27.888514
20
1.354386
40
0.591289
50
215.750604
51
245.188718
0
ARC
8
0
10
15.24116
20
6.092119
40
1.113387
50
294.632103
51
298.087713
0
ARC
8
0
10
13.683533
20
0.973572
40
2.336317
50
-1.807452
51
0.022485
0
ARC
8
0
10
17.679233
20
5.123112
40
0.361405
50
55.524917
51
89.308119
0
ARC
8
0
10
14.984024
20
0.844316
40
1.027609
50
341.350183
51
351.85048
0
ARC
8
0
10
14.303696
20
0.947078
40
1.715643
50
351.674006
51
358.423653
0
ARC
8
0
10
26.620127
20
4.492274
40
0.354898
50
116.135738
51
126.240576
0
ARC
8
0
10
40.563655
20
-31.378529
40
34.093004
50
111.532013
51
111.735919
0
ARC
8
0
10
16.341512
20
5.017903
40
0.484709
50
52.403055
51
59.005972
0
ARC
8
0
10
17.68459
20
5.389104
40
0.095392
50
90.59512
51
99.122923
0
ARC
8
0
10
16.954877
20
4.141126
40
0.626763
50
66.55231
51
79.992169
0
ARC
8
0
10
16.106651
20
4.70981
40
0.872108
50
48.201557
51
52.526613
0
ARC
8
0
10
0.565724
20
-2.341273
40
28.629904
50
14.614913
51
14.929507
0
ARC
8
0
10
26.595409
20
3.09513
40
3.099206
50
287.248106
51
289.466982
0
ARC
8
0
10
28.452649
20
0.406774
40
0.073007
50
94.620167
51
107.003274
0
ARC
8
0
10
29.254968
20
0.838987
40
4.711877
50
106.389939
51
108.318119
0
ARC
8
0
10
28.107052
20
1.527372
40
0.866745
50
191.396429
51
207.273741
0
ARC
8
0
10
31.373661
20
5.492993
40
3.158392
50
194.268763
51
197.03584
0
ARC
8
0
10
28.76181
20
4.798612
40
0.634067
50
264.962419
51
270.109088
0
ARC
8
0
10
27.135278
20
1.343804
40
1.266562
50
283.254763
51
287.415176
0
ARC
8
0
10
36.130325
20
-19.014556
40
25.722961
50
110.349656
51
110.797024
0
ARC
8
0
10
26.272856
20
4.668477
40
1.984026
50
15.413423
51
16.066605
0
ARC
8
0
10
28.476652
20
0.525063
40
4.7366
50
112.373717
51
113.849433
0
ARC
8
0
10
29.439542
20
4.836535
40
1.114745
50
200.840208
51
206.623319
0
ARC
8
0
10
30.227379
20
5.139783
40
1.958924
50
196.980617
51
200.931565
0
ARC
8
0
10
31.053489
20
-4.631011
40
10.469959
50
108.253552
51
109.350602
0
ARC
8
0
10
28.136883
20
1.855947
40
1.150875
50
244.443364
51
258.26384
0
ARC
8
0
10
28.806531
20
1.650589
40
1.576916
50
185.675022
51
190.473746
0
ARC
8
0
10
-9.070325
20
-4.855059
40
38.588451
50
14.358686
51
14.616501
0
ARC
8
0
10
28.32313
20
1.633698
40
1.107535
50
207.040412
51
214.341099
0
ARC
8
0
10
9.064104
20
-0.072594
40
19.833919
50
14.92183
51
15.404098
0
ARC
8
0
10
36.170744
20
-12.00947
40
17.664999
50
115.11064
51
115.410998
0
ARC
8
0
10
30.776317
20
-6.227721
40
7.104636
50
110.214148
51
110.833391
0
ARC
8
0
10
27.823526
20
5.193831
40
0.345411
50
22.007257
51
28.762137
0
ARC
8
0
10
27.341891
20
0.447937
40
0.347215
50
273.88666
51
283.964171
0
ARC
8
0
10
36.408531
20
-20.844813
40
22.769389
50
111.267495
51
111.534395
0
ARC
8
0
10
27.577864
20
1.089368
40
1.046865
50
223.844936
51
237.816206
0
ARC
8
0
10
30.327165
20
-3.961083
40
9.589421
50
111.357958
51
112.395056
0
ARC
8
0
10
28.67958
20
4.427484
40
0.251201
50
210.865927
51
252.125257
0
ARC
8
0
10
28.018573
20
5.302484
40
0.122161
50
28.105081
51
41.994824
0
ARC
8
0
10
28.344618
20
2.801529
40
2.118968
50
257.964965
51
266.203971
0
ARC
8
0
10
29.066834
20
4.652796
40
0.699221
50
206.84971
51
210.434347
0
ARC
8
0
10
28.740057
20
4.59283
40
0.427185
50
251.212212
51
265.445141
0
ARC
8
0
10
23.950316
20
10.277437
40
10.753655
50
290.823769
51
291.766407
0
ARC
8
0
10
27.367334
20
0.74299
40
0.641603
50
237.252195
51
269.391457
0
ARC
8
0
10
26.42349
20
4.755597
40
0.026433
50
119.882527
51
164.475154
0
ARC
8
0
10
26.832008
20
4.831981
40
1.40146
50
15.96976
51
18.441996
0
ARC
8
0
10
31.232982
20
1.814906
40
4.009968
50
179.924836
51
182.345806
0
ARC
8
0
10
32.939363
20
-10.617882
40
16.7404
50
110.791058
51
111.386842
0
ARC
8
0
10
27.440919
20
4.485283
40
0.279015
50
139.743469
51
141.349341
0
ARC
8
0
10
27.392772
20
4.528392
40
0.214418
50
126.801589
51
140.220903
0
ARC
8
0
10
32.385452
20
-3.922199
40
8.735699
50
114.498517
51
115.139708
0
ARC
8
0
10
24.570425
20
3.40555
40
3.122559
50
17.490656
51
20.303325
0
ARC
8
0
10
27.345631
20
4.685874
40
0.042432
50
57.753524
51
88.461464
0
ARC
8
0
10
37.904894
20
4.308144
40
0.325452
50
72.074057
51
86.180394
0
ARC
8
0
10
24.146963
20
32.162971
40
34.841488
50
293.29487
51
293.506923
0
ARC
8
0
10
28.406939
20
1.581481
40
1.171428
50
190.702748
51
191.092458
0
ARC
8
0
10
39.202597
20
1.137081
40
0.184872
50
218.722623
51
249.968836
0
ARC
8
0
10
39.526833
20
1.246558
40
0.528501
50
185.595675
51
194.250863
0
ARC
8
0
10
27.347474
20
4.591686
40
0.136609
50
90.294917
51
127.490778
0
ARC
8
0
10
40.923074
20
4.517513
40
1.926589
50
179.175076
51
180.00424
0
ARC
8
0
10
39.303704
20
1.18844
40
0.297935
50
193.980885
51
208.197045
0
ARC
8
0
10
36.876768
20
2.567339
40
2.624298
50
292.271948
51
293.554522
0
ARC
8
0
10
27.286528
20
4.602004
40
0.145002
50
31.485983
51
55.683639
0
LINE
8
0
10
39.298985
20
5.43862
11
39.408985
21
5.21862
0
ARC
8
0
10
51.162931
20
-43.337849
40
52.395948
50
115.679012
51
115.863128
0
ARC
8
0
10
33.070752
20
-12.262019
40
13.560426
50
110.826262
51
111.278928
0
ARC
8
0
10
27.62815
20
1.332199
40
1.23013
50
180.00713
51
202.4451
0
ARC
8
0
10
37.952151
20
4.441646
40
0.183925
50
26.685267
51
73.280041
0
ARC
8
0
10
22.103125
20
16.348816
40
13.988948
50
295.248439
51
295.682957
0
ARC
8
0
10
25.576105
20
5.994455
40
6.172485
50
289.418619
51
290.851455
0
ARC
8
0
10
39.571004
20
4.723911
40
0.550473
50
144.972246
51
162.488511
0
ARC
8
0
10
-187.324082
20
516.761218
40
563.571706
50
293.612608
51
293.643527
0
ARC
8
0
10
39.21407
20
1.142509
40
0.197246
50
208.741383
51
217.868077
0
ARC
8
0
10
39.41207
20
4.941965
40
0.276677
50
90.638912
51
122.495902
0
ARC
8
0
10
27.841781
20
3.721795
40
0.116138
50
280.895624
51
292.448147
0
LINE
8
0
10
37.868985
20
0.137995
11
37.758985
21
0.357995
0
ARC
8
0
10
-517.2112
20
1270.002448
40
1385.884225
50
293.659479
51
293.674249
0
ARC
8
0
10
39.269621
20
1.420848
40
0.478478
50
262.959822
51
270.22335
0
ARC
8
0
10
39.927937
20
4.606591
40
0.926178
50
162.211186
51
172.70121
0
ARC
8
0
10
37.890303
20
4.155085
40
0.479166
50
85.658277
51
90.082624
0
ARC
8
0
10
39.681521
20
4.611392
40
0.70614
50
135.536382
51
142.642525
0
ARC
8
0
10
22.160363
20
2.640539
40
5.651118
50
15.681518
51
17.54435
0
ARC
8
0
10
27.862307
20
3.620166
40
0.012496
50
270.398244
51
276.547066
0
ARC
8
0
10
28.102074
20
5.097284
40
0.29816
50
92.460876
51
103.415499
0
ARC
8
0
10
41.896497
20
-24.059843
40
31.006509
50
115.412636
51
115.683592
0
ARC
8
0
10
36.284462
20
4.164105
40
1.887028
50
-0.128642
51
3.461275
0
ARC
8
0
10
39.503651
20
4.789796
40
0.454239
50
121.92702
51
135.880926
0
ARC
8
0
10
27.554598
20
4.489062
40
0.935335
50
290.759934
51
293.563643
0
LINE
8
0
10
37.88961
20
4.634245
11
37.88961
21
4.84737
0
ARC
8
0
10
37.728102
20
0.628688
40
0.2745
50
285.320567
51
294.384386
0
ARC
8
0
10
37.658747
20
0.783596
40
0.444224
50
294.283012
51
300.685233
0
ARC
8
0
10
37.757071
20
0.520179
40
0.162195
50
270.676805
51
285.579762
0
LINE
8
0
10
26.39802
20
1.332045
11
26.39802
21
4.76267
0
ARC
8
0
10
-70.848855
20
250.298763
40
272.764695
50
293.559998
51
293.614378
0
ARC
8
0
10
26.932114
20
4.363315
40
0.572193
50
24.353765
51
33.333073
0
ARC
8
0
10
-8.168754
20
106.554723
40
115.949058
50
293.488153
51
293.560292
0
ARC
8
0
10
37.864882
20
0.153676
40
0.016209
50
284.663519
51
293.650339
0
ARC
8
0
10
37.523601
20
4.287921
40
0.640503
50
8.355091
51
16.532288
0
LINE
8
0
10
28.76302
20
4.164545
11
28.76302
21
4.027045
0
ARC
8
0
10
27.360421
20
0.228409
40
0.12699
50
270.045385
51
272.2587
0
ARC
8
0
10
28.439845
20
4.026852
40
3.347944
50
265.9661
51
270.118482
0
ARC
8
0
10
39.24662
20
1.249044
40
0.305156
50
249.40345
51
263.291983
0
ARC
8
0
10
39.876611
20
1.282649
40
0.880137
50
179.773983
51
185.713599
0
ARC
8
0
10
59.170892
20
-59.874314
40
70.769352
50
115.85689
51
115.907093
0
ARC
8
0
10
52.729132
20
-3.17488
40
9.051861
50
113.864436
51
114.808823
0
ARC
8
0
10
49.428351
20
5.029975
40
1.02146
50
293.250748
51
296.415862
0
LINE
8
0
10
38.171485
20
1.017995
11
38.171485
21
4.15987
0
ARC
8
0
10
27.870508
20
3.678713
40
0.071505
50
216.251295
51
263.484606
0
ARC
8
0
10
31.36798
20
5.185675
40
3.901238
50
196.709992
51
199.019386
0
ARC
8
0
10
49.165325
20
2.90224
40
0.765793
50
206.006064
51
214.928635
0
ARC
8
0
10
55.048878
20
-4.892519
40
10.380673
50
117.191294
51
117.409843
0
ARC
8
0
10
42.777487
20
17.708086
40
15.339489
50
298.313872
51
298.803055
0
ARC
8
0
10
37.015132
20
4.209744
40
1.15494
50
3.389956
51
8.526958
0
ARC
8
0
10
50.564464
20
4.811142
40
0.206492
50
240.586454
51
270.35286
0
ARC
8
0
10
33.298815
20
5.773273
40
5.919496
50
195.7349
51
196.783696
0
ARC
8
0
10
37.802199
20
4.370217
40
0.349998
50
16.594694
51
26.108825
0
LINE
8
0
10
38.996485
20
4.51737
11
38.996485
21
1.28612
0
ARC
8
0
10
24.968306
20
10.268
40
7.266925
50
294.560317
51
295.266371
0
ARC
8
0
10
52.67966
20
-2.497704
40
8.410716
50
111.423328
51
112.705319
0
ARC
8
0
10
37.633139
20
0.866921
40
0.527516
50
311.760113
51
318.317647
0
ARC
8
0
10
40.493547
20
4.530009
40
1.496935
50
172.543941
51
179.416553
0
LINE
8
0
10
50.565735
20
4.604655
11
50.565735
21
4.467155
0
ARC
8
0
10
49.777656
20
4.206312
40
0.126868
50
282.111528
51
295.152118
0
ARC
8
0
10
26.093204
20
3.972193
40
1.497782
50
20.186795
51
24.750659
0
ARC
8
0
10
50.546501
20
3.222153
40
2.201391
50
179.983745
51
182.012313
0
ARC
8
0
10
48.448807
20
4.640493
40
0.104423
50
132.373702
51
173.241076
0
ARC
8
0
10
55.665033
20
8.019088
40
6.233651
50
208.327507
51
208.817887
0
ARC
8
0
10
37.637198
20
0.848936
40
0.512638
50
319.516623
51
341.459069
0
ARC
8
0
10
28.070735
20
3.858426
40
0.340279
50
207.582905
51
220.722282
0
ARC
8
0
10
50.736581
20
4.980817
40
0.450302
50
207.964957
51
219.623382
0
ARC
8
0
10
-334.341293
20
852.610709
40
930.189958
50
293.642637
51
293.659496
0
ARC
8
0
10
18.489647
20
23.873107
40
22.335929
50
295.671485
51
295.913722
0
LINE
8
0
10
39.271485
20
0.94237
11
39.271485
21
0.74987
0
ARC
8
0
10
38.365976
20
25.743064
40
24.505855
50
298.790121
51
299.062731
0
ARC
8
0
10
48.892497
20
2.709063
40
0.431513
50
214.640614
51
229.486927
0
LINE
8
0
10
48.34511
20
3.22278
11
48.34511
21
4.65278
0
ARC
8
0
10
36.064132
20
-3.027547
40
16.265436
50
28.710312
51
28.930394
0
ARC
8
0
10
37.572304
20
0.937558
40
0.620724
50
301.112551
51
311.606117
0
ARC
8
0
10
26.696868
20
6.48043
40
3.103562
50
293.381309
51
294.599769
0
ARC
8
0
10
53.946943
20
-2.740479
40
7.962916
50
116.431947
51
117.214648
0
ARC
8
0
10
48.382989
20
7.161858
40
3.395837
50
296.20962
51
297.583357
0
ARC
8
0
10
52.653639
20
-0.135899
40
5.054918
50
115.347385
51
116.446496
0
ARC
8
0
10
49.808704
20
4.166888
40
0.084948
50
225.092624
51
265.887688
0
ARC
8
0
10
28.645568
20
4.171876
40
0.994983
50
202.038627
51
208.254322
0
LINE
8
0
10
37.88961
20
4.84737
11
39.298985
21
5.43862
0
ARC
8
0
10
48.753172
20
4.360169
40
0.517891
50
124.483962
51
136.351879
0
ARC
8
0
10
37.592472
20
0.899816
40
0.578001
50
300.455567
51
301.333928
0
LINE
8
0
10
49.17011
20
4.687155
11
49.17011
21
3.15403
0
ARC
8
0
10
51.730943
20
1.815572
40
2.896306
50
113.72251
51
115.378395
0
ARC
8
0
10
53.797898
20
7.01377
40
4.11307
50
207.565455
51
208.34208
0
ARC
8
0
10
49.948888
20
4.327846
40
0.298259
50
214.049264
51
227.849518
0
ARC
8
0
10
29.709179
20
4.611915
40
2.146012
50
198.9699
51
202.273115
0
ARC
8
0
10
50.597536
20
4.863633
40
0.268477
50
219.284506
51
239.939129
0
ARC
8
0
10
50.319032
20
4.587918
40
0.750607
50
207.982409
51
214.677895
0
LINE
8
0
10
48.26261
20
1.015905
11
48.26261
21
1.153405
0
ARC
8
0
10
28.311261
20
-7.311837
40
25.123323
50
28.92861
51
29.0994
0
ARC
8
0
10
50.157014
20
4.226607
40
1.22754
50
104.661413
51
109.514351
0
ARC
8
0
10
47.844995
20
3.913536
40
1.791471
50
23.241132
51
26.998606
0
ARC
8
0
10
49.564658
20
3.093272
40
1.208608
50
190.939354
51
204.952136
0
ARC
8
0
10
48.662075
20
4.332438
40
0.873274
50
26.846474
51
32.944066
0
ARC
8
0
10
49.802505
20
4.096191
40
0.014036
50
270.425075
51
277.237409
0
ARC
8
0
10
46.274382
20
11.211486
40
7.961541
50
297.538769
51
298.334113
0
ARC
8
0
10
48.767295
20
2.555949
40
0.23381
50
228.437916
51
269.311413
0
ARC
8
0
10
53.073047
20
5.833162
40
3.776053
50
200.872698
51
201.205305
0
ARC
8
0
10
49.405999
20
3.027184
40
1.036904
50
205.339796
51
206.380044
0
LINE
8
0
10
50.620735
20
2.294655
11
50.620735
21
0.83028
0
ARC
8
0
10
51.013006
20
4.961044
40
1.538526
50
203.850709
51
208.127321
0
ARC
8
0
10
52.165514
20
5.47481
40
2.800358
50
201.086136
51
203.929905
0
ARC
8
0
10
50.989604
20
1.823365
40
3.770899
50
109.240552
51
111.49949
0
ARC
8
0
10
46.524346
20
3.342372
40
3.230337
50
20.767626
51
23.306533
0
ARC
8
0
10
49.339449
20
3.536027
40
1.529248
50
119.530048
51
125.107794
0
ARC
8
0
10
37.339236
20
0.953788
40
0.828487
50
341.136806
51
353.30892
0
ARC
8
0
10
49.894058
20
5.341369
40
0.081554
50
52.56525
51
86.623278
0
ARC
8
0
10
52.369234
20
6.268218
40
2.501576
50
206.60862
51
207.570346
0
ARC
8
0
10
48.268731
20
4.12748
40
2.124864
50
28.696598
51
31.528506
0
ARC
8
0
10
19.323859
20
-12.31186
40
35.40795
50
29.096324
51
29.19982
0
ARC
8
0
10
39.985291
20
-0.878053
40
11.793771
50
28.611778
51
28.702634
0
ARC
8
0
10
55.358099
20
-8.920742
40
15.369838
50
112.6741
51
113.465428
0
ARC
8
0
10
49.910674
20
5.185774
40
0.237303
50
92.854018
51
105.73719
0
LINE
8
0
10
49.795735
20
0.795905
11
49.795735
21
2.34278
0
ARC
8
0
10
58.641858
20
-16.504845
40
23.634325
50
113.446617
51
113.899012
0
ARC
8
0
10
51.432876
20
-0.387068
40
5.977433
50
114.742853
51
116.819582
0
ARC
8
0
10
49.795674
20
5.198099
40
0.255272
50
41.722716
51
54.578278
0
ARC
8
0
10
36.880432
20
1.012863
40
1.291065
50
-6.922605
51
0.227677
0
ARC
8
0
10
49.532087
20
4.956215
40
0.613014
50
35.398629
51
42.200474
0
ARC
8
0
10
49.043175
20
4.604199
40
1.215462
50
31.463884
51
35.574779
0
ARC
8
0
10
57.827517
20
9.20827
40
8.701544
50
208.814835
51
209.207424
0
ARC
8
0
10
49.605551
20
4.696791
40
0.435259
50
169.671997
51
178.667393
0
ARC
8
0
10
45.622148
20
6.712513
40
6.156222
50
297.066624
51
298.053998
0
ARC
8
0
10
50.09273
20
3.149949
40
0.92263
50
179.746641
51
185.340241
0
ARC
8
0
10
50.223987
20
1.136965
40
0.517589
50
302.874582
51
314.335809
0
ARC
8
0
10
56.223783
20
-12.627846
40
15.899152
50
117.949966
51
118.427601
0
ARC
8
0
10
48.213803
20
2.297366
40
2.406932
50
-0.064516
51
3.65279
0
ARC
8
0
10
50.087125
20
3.198052
40
1.741465
50
181.750442
51
191.062036
0
ARC
8
0
10
50.22067
20
2.005014
40
3.295737
50
116.775299
51
119.741113
0
ARC
8
0
10
49.655177
20
1.988827
40
1.541859
50
297.89669
51
303.444317
0
ARC
8
0
10
49.279439
20
0.411702
40
0.516131
50
209.108871
51
214.217194
0
ARC
8
0
10
49.103835
20
4.622359
40
0.344894
50
32.435026
51
44.443583
0
ARC
8
0
10
44.973374
20
-1.04401
40
3.994985
50
27.073617
51
28.651866
0
ARC
8
0
10
49.293766
20
4.845005
40
0.0484
50
79.101629
51
89.886909
0
ARC
8
0
10
49.293403
20
2.972376
40
0.093346
50
206.881209
51
270.280413
0
ARC
8
0
10
47.420301
20
6.510829
40
6.587746
50
292.945337
51
295.045684
0
ARC
8
0
10
49.080966
20
0.275803
40
0.275589
50
214.056884
51
222.024105
0
ARC
8
0
10
42.976268
20
17.054422
40
18.028956
50
290.990445
51
291.716437
0
ARC
8
0
10
38.175967
20
28.802433
40
28.214433
50
293.941145
51
294.151912
0
ARC
8
0
10
49.288701
20
2.932616
40
0.053834
50
275.501729
51
289.350157
0
ARC
8
0
10
47.739263
20
4.306956
40
4.420059
50
287.839446
51
289.912887
0
ARC
8
0
10
48.931465
20
0.114174
40
0.053928
50
234.176602
51
267.893729
0
ARC
8
0
10
45.063474
20
13.192173
40
11.152207
50
293.20942
51
293.67928
0
ARC
8
0
10
48.973639
20
0.17792
40
0.130339
50
221.645223
51
235.547057
0
ARC
8
0
10
50.201651
20
3.140649
40
0.095882
50
90.174213
51
94.579044
0
ARC
8
0
10
49.536124
20
2.512488
40
1.061918
50
25.63086
51
27.997609
0
ARC
8
0
10
50.198175
20
3.016975
40
0.219582
50
50.279271
51
89.169132
0
ARC
8
0
10
49.820529
20
2.669007
40
0.737336
50
27.633022
51
36.698358
0
ARC
8
0
10
57.103695
20
4.360956
40
9.281855
50
205.161644
51
205.743327
0
ARC
8
0
10
49.808357
20
4.687397
40
0.638247
50
178.247677
51
180.021766
0
ARC
8
0
10
51.862046
20
-1.5488
40
5.079178
50
111.793506
51
113.232199
0
ARC
8
0
10
48.746318
20
3.68082
40
3.462481
50
294.991508
51
298.088548
0
ARC
8
0
10
49.278125
20
4.798651
40
0.097097
50
42.186114
51
75.208409
0
ARC
8
0
10
51.9266
20
1.818075
40
3.513796
50
206.653165
51
207.839256
0
ARC
8
0
10
45.978003
20
9.88476
40
10.25701
50
292.079531
51
293.017062
0
ARC
8
0
10
50.918368
20
0.81851
40
2.530715
50
109.515579
51
111.853758
0
ARC
8
0
10
53.352525
20
-5.030668
40
8.866649
50
113.207437
51
114.184215
0
ARC
8
0
10
50.082698
20
2.866869
40
0.408892
50
36.421966
51
51.274258
0
ARC
8
0
10
49.143352
20
3.39636
40
0.539792
50
287.596227
51
291.453426
0
ARC
8
0
10
41.99712
20
20.194185
40
18.796201
50
293.667296
51
293.94364
0
ARC
8
0
10
48.916565
20
0.334026
40
0.274054
50
272.702419
51
284.646431
0
ARC
8
0
10
51.083554
20
-1.542436
40
4.449269
50
111.159358
51
112.412836
0
ARC
8
0
10
50.224916
20
2.947593
40
0.290284
50
96.113879
51
106.315611
0
ARC
8
0
10
48.17175
20
0.707256
40
0.348563
50
28.117868
51
42.810423
0
ARC
8
0
10
60.745289
20
-20.992356
40
25.407519
50
118.414963
51
118.681084
0
ARC
8
0
10
49.39457
20
4.736749
40
0.220539
50
154.365613
51
170.058016
0
ARC
8
0
10
48.496514
20
5.076626
40
2.340256
50
291.146752
51
292.662265
0
ARC
8
0
10
61.163635
20
1.095319
40
0.197246
50
208.741383
51
217.868077
0
ARC
8
0
10
60.632357
20
6.019546
40
13.180882
50
204.705242
51
205.165623
0
ARC
8
0
10
46.605367
20
4.785825
40
3.993159
50
295.716546
51
297.083259
0
ARC
8
0
10
49.410064
20
3.043458
40
0.229785
50
193.521889
51
209.538471
0
ARC
8
0
10
48.647582
20
1.463869
40
1.435417
50
283.630787
51
288.092369
0
ARC
8
0
10
45.896306
20
9.429899
40
9.86441
50
289.842851
51
291.019109
0
ARC
8
0
10
41.131596
20
-2.948424
40
8.283138
50
24.682971
51
25.847683
0
ARC
8
0
10
50.521982
20
0.843315
40
0.099611
50
309.774142
51
352.479984
0
ARC
8
0
10
48.851979
20
2.344831
40
1.767046
50
3.43512
51
12.161275
0
ARC
8
0
10
44.787963
20
8.286135
40
7.937264
50
298.025782
51
298.303525
0
ARC
8
0
10
49.051233
20
1.411064
40
0.130097
50
102.053009
51
114.879318
0
ARC
8
0
10
49.661826
20
3.108105
40
0.489704
50
185.157558
51
193.988507
0
ARC
8
0
10
49.534375
20
0.795014
40
0.26136
50
-8.711831
51
0.194849
0
ARC
8
0
10
39.396847
20
26.064181
40
27.723702
50
291.699177
51
292.114215
0
ARC
8
0
10
58.234027
20
4.116915
40
1.887028
50
-0.128642
51
3.461275
0
ARC
8
0
10
50.421498
20
2.227808
40
1.036392
50
105.566995
51
109.652003
0
ARC
8
0
10
61.196184
20
1.201849
40
0.305156
50
249.40345
51
263.291983
0
ARC
8
0
10
52.640087
20
-5.867598
40
8.247761
50
117.192925
51
117.969762
0
ARC
8
0
10
49.289669
20
4.79089
40
0.102597
50
87.659684
51
156.281926
0
ARC
8
0
10
50.479533
20
-1.656479
40
3.514737
50
115.894005
51
117.236589
0
ARC
8
0
10
49.565142
20
0.832381
40
0.2524
50
300.570956
51
311.947312
0
ARC
8
0
10
43.239493
20
16.11852
40
14.873848
50
293.210199
51
293.585329
0
ARC
8
0
10
52.445982
20
-4.859751
40
8.035456
50
112.374997
51
113.078904
0
LINE
8
0
10
60.12105
20
0.970805
11
60.12105
21
4.11268
0
ARC
8
0
10
49.481993
20
0.527571
40
0.749474
50
207.875249
51
209.314937
0
ARC
8
0
10
47.31188
20
3.315642
40
2.362019
50
293.734968
51
295.750645
0
ARC
8
0
10
61.877502
20
4.559401
40
0.926178
50
162.211186
51
172.70121
0
ARC
8
0
10
49.435628
20
2.47363
40
1.16936
50
12.016534
51
25.217353
0
ARC
8
0
10
62.872639
20
4.470323
40
1.926589
50
179.175076
51
180.00424
0
ARC
8
0
10
48.265541
20
0.797445
40
0.218477
50
42.17471
51
90.76849
0
ARC
8
0
10
54.127695
20
2.923734
40
5.976993
50
205.724374
51
206.660712
0
ARC
8
0
10
47.168159
20
8.28185
40
5.809826
50
292.571819
51
293.217026
0
ARC
8
0
10
43.387614
20
-1.855892
40
5.776502
50
25.851184
51
27.085352
0
ARC
8
0
10
48.055683
20
4.531445
40
2.324888
50
289.823584
51
291.54947
0
ARC
8
0
10
48.96392
20
2.347719
40
0.831831
50
-0.340117
51
6.918602
0
ARC
8
0
10
53.534783
20
2.737581
40
4.536813
50
201.64668
51
203.686752
0
ARC
8
0
10
49.359277
20
2.397736
40
0.433334
50
6.650386
51
18.61709
0
ARC
8
0
10
59.751764
20
4.323028
40
0.349998
50
16.594694
51
26.108825
0
LINE
8
0
10
59.81855
20
0.090805
11
59.70855
21
0.310805
0
ARC
8
0
10
49.574701
20
2.472899
40
0.2052
50
17.93108
51
41.568037
0
ARC
8
0
10
59.473166
20
4.240731
40
0.640503
50
8.355091
51
16.532288
0
ARC
8
0
10
47.4342
20
0.427971
40
1.982998
50
24.572285
51
28.244288
0
ARC
8
0
10
50.230691
20
0.664235
40
2.083521
50
109.343097
51
111.191444
0
LINE
8
0
10
61.22105
20
0.89518
11
61.22105
21
0.70268
0
ARC
8
0
10
44.643357
20
-0.798242
40
5.031862
50
21.721541
51
22.35531
0
ARC
8
0
10
61.826177
20
1.235459
40
0.880137
50
179.773983
51
185.713599
0
ARC
8
0
10
45.330983
20
11.234217
40
9.560589
50
292.56514
51
293.226454
0
ARC
8
0
10
58.964697
20
4.162548
40
1.15494
50
3.389956
51
8.526958
0
LINE
8
0
10
59.839175
20
4.80018
11
61.24855
21
5.39143
0
LINE
8
0
10
60.94605
20
4.47018
11
60.94605
21
1.23893
0
ARC
8
0
10
50.527196
20
1.334657
40
1.216941
50
206.628907
51
211.804133
0
ARC
8
0
10
49.025839
20
1.524286
40
0.014119
50
90.430382
51
97.217512
0
ARC
8
0
10
48.755591
20
2.44558
40
0.123745
50
274.119998
51
287.773469
0
ARC
8
0
10
49.6325
20
2.513445
40
0.13898
50
93.563437
51
106.99545
0
ARC
8
0
10
48.57743
20
3.074329
40
0.777188
50
286.131843
51
290.06836
0
ARC
8
0
10
49.408766
20
0.557805
40
1.055158
50
112.998968
51
116.096383
0
ARC
8
0
10
48.846446
20
1.266204
40
0.338454
50
33.739196
51
46.86941
0
ARC
8
0
10
49.628727
20
2.516046
40
0.136196
50
43.067623
51
92.048069
0
ARC
8
0
10
61.631086
20
4.564202
40
0.70614
50
135.536382
51
142.642525
0
LINE
8
0
10
59.839175
20
4.587055
11
59.839175
21
4.80018
0
ARC
8
0
10
61.152162
20
1.089891
40
0.184872
50
218.722623
51
249.968836
0
ARC
8
0
10
54.242468
20
-9.080209
40
12.622357
50
113.07117
51
113.592004
0
ARC
8
0
10
49.793777
20
1.91818
40
0.755645
50
105.497165
51
109.576936
0
ARC
8
0
10
48.359487
20
0.928554
40
0.930991
50
28.053122
51
34.374293
0
ARC
8
0
10
49.60219
20
0.766458
40
0.176803
50
270.337976
51
301.099427
0
ARC
8
0
10
61.219185
20
1.373652
40
0.478478
50
262.959822
51
270.22335
0
ARC
8
0
10
49.638891
20
0.708257
40
0.126593
50
219.259695
51
245.851819
0
ARC
8
0
10
61.476398
20
1.199369
40
0.528501
50
185.595675
51
194.250863
0
ARC
8
0
10
49.61369
20
0.779531
40
0.180642
50
311.699065
51
352.331961
0
ARC
8
0
10
45.97401
20
-0.24486
40
3.590741
50
22.264742
51
24.647181
0
ARC
8
0
10
49.896423
20
0.939686
40
0.47273
50
211.41158
51
221.225372
0
ARC
8
0
10
59.854459
20
4.260949
40
0.325451
50
72.074057
51
86.180394
0
ARC
8
0
10
51.701342
20
1.93017
40
2.53347
50
203.622746
51
206.766469
0
ARC
8
0
10
61.361635
20
4.894769
40
0.276677
50
90.638912
51
122.495902
0
ARC
8
0
10
61.453216
20
4.742606
40
0.454239
50
121.92702
51
135.880926
0
ARC
8
0
10
59.901715
20
4.394456
40
0.183925
50
26.685267
51
73.280041
0
ARC
8
0
10
47.029131
20
7.141195
40
5.129278
50
291.507322
51
292.592955
0
ARC
8
0
10
59.839868
20
4.107895
40
0.479166
50
85.658277
51
90.082624
0
ARC
8
0
10
61.520569
20
4.676721
40
0.550473
50
144.972246
51
162.488511
0
ARC
8
0
10
49.018282
20
1.456532
40
0.082214
50
43.58273
51
84.797172
0
ARC
8
0
10
61.253269
20
1.14125
40
0.297935
50
193.980885
51
208.197045
0
ARC
8
0
10
71.754122
20
4.502999
40
0.912494
50
21.784462
51
33.072524
0
LINE
8
0
10
71.19068
20
4.694525
11
71.19068
21
1.284525
0
ARC
8
0
10
70.364938
20
5.219511
40
5.007354
50
293.234632
51
294.553419
0
ARC
8
0
10
63.366105
20
22.395995
40
23.55623
50
291.210107
51
291.408109
0
LINE
8
0
10
70.36568
20
1.147025
11
70.36568
21
4.804525
0
ARC
8
0
10
59.582704
20
0.819725
40
0.527516
50
311.760113
51
318.317647
0
ARC
8
0
10
73.207073
20
0.927283
40
4.664764
50
106.443634
51
108.384768
0
ARC
8
0
10
71.538016
20
1.124414
40
0.348651
50
287.207805
51
293.595918
0
ARC
8
0
10
62.443111
20
4.482819
40
1.496935
50
172.543941
51
179.416553
0
ARC
8
0
10
49.603774
20
0.636179
40
0.04653
50
249.000881
51
269.333882
0
ARC
8
0
10
59.706636
20
0.472989
40
0.162195
50
270.676805
51
285.579762
0
LINE
8
0
10
71.80943
20
0.885775
11
71.80943
21
4.2889
0
ARC
8
0
10
71.535997
20
2.67168
40
2.2033
50
294.386009
51
297.431083
0
ARC
8
0
10
71.47025
20
1.286186
40
0.524034
50
293.305965
51
305.576688
0
ARC
8
0
10
72.043708
20
5.2806
40
0.156552
50
62.018977
51
87.677294
0
ARC
8
0
10
68.605905
20
9.318655
40
9.46798
50
292.098094
51
293.230207
0
ARC
8
0
10
72.095513
20
4.63612
40
0.54609
50
2.379421
51
22.107653
0
LINE
8
0
10
61.24855
20
5.39143
11
61.35855
21
5.17143
0
ARC
8
0
10
71.932234
20
5.051865
40
0.410949
50
52.160755
51
63.256142
0
ARC
8
0
10
59.586763
20
0.801746
40
0.512638
50
319.516623
51
341.459069
0
ARC
8
0
10
72.062777
20
5.14052
40
0.29678
50
92.457098
51
103.445032
0
ARC
8
0
10
13.780811
20
106.507533
40
115.949058
50
293.488153
51
293.560292
0
ARC
8
0
10
59.677668
20
0.581499
40
0.2745
50
285.320567
51
294.384386
0
ARC
8
0
10
72.325286
20
3.936834
40
1.528709
50
102.524646
51
106.676047
0
ARC
8
0
10
74.28201
20
-3.852458
40
9.523277
50
111.443159
51
112.483534
0
LINE
8
0
10
72.641305
20
4.6464
11
72.641305
21
0.78265
0
ARC
8
0
10
76.885286
20
-10.457546
40
16.622864
50
110.874409
51
111.472125
0
ARC
8
0
10
-165.374517
20
516.714022
40
563.571706
50
293.612608
51
293.643527
0
ARC
8
0
10
59.288801
20
0.906598
40
0.828487
50
341.136806
51
353.30892
0
ARC
8
0
10
71.275385
20
4.19617
40
1.481106
50
32.912695
51
40.351455
0
ARC
8
0
10
65.770155
20
16.169384
40
16.881656
50
290.351238
51
291.249211
0
ARC
8
0
10
72.202817
20
4.646378
40
0.438487
50
0.002792
51
1.622262
0
ARC
8
0
10
74.991472
20
-4.478782
40
10.357704
50
108.319869
51
108.872349
0
ARC
8
0
10
80.06526
20
-18.788759
40
25.540344
50
110.431549
51
110.880392
0
ARC
8
0
10
-48.89929
20
250.251573
40
272.764695
50
293.559998
51
293.614378
0
ARC
8
0
10
-495.261635
20
1269.955258
40
1385.884225
50
293.659479
51
293.674249
0
ARC
8
0
10
70.620346
20
2.153899
40
2.04644
50
282.766206
51
286.87982
0
ARC
8
0
10
59.542037
20
0.852626
40
0.578001
50
300.455567
51
301.333928
0
ARC
8
0
10
71.649815
20
4.680357
40
0.877602
50
46.073303
51
52.478302
0
ARC
8
0
10
65.785847
20
16.246389
40
16.9477
50
291.380613
51
292.120843
0
ARC
8
0
10
46.096528
20
32.115781
40
34.841488
50
293.29487
51
293.506923
0
ARC
8
0
10
70.391156
20
4.79749
40
0.026428
50
120.036738
51
164.563726
0
ARC
8
0
10
59.521869
20
0.890367
40
0.620724
50
301.112551
51
311.606117
0
ARC
8
0
10
58.829996
20
0.965673
40
1.291065
50
-6.922605
51
0.227677
0
ARC
8
0
10
71.112745
20
4.118246
40
1.655043
50
41.867629
51
46.182149
0
ARC
8
0
10
59.608313
20
0.736406
40
0.444224
50
294.283012
51
300.685233
0
ARC
8
0
10
70.938983
20
0.716441
40
0.574145
50
273.556888
51
283.452513
0
ARC
8
0
10
72.595457
20
0.798798
40
0.048609
50
296.303639
51
340.593444
0
ARC
8
0
10
58.826333
20
2.52015
40
2.624298
50
292.271948
51
293.554522
0
ARC
8
0
10
70.587258
20
4.536042
40
0.353072
50
116.237021
51
126.361684
0
ARC
8
0
10
70.967111
20
0.359617
40
0.216342
50
270.035575
51
271.985717
0
ARC
8
0
10
71.093445
20
0.619823
40
0.506258
50
228.179784
51
241.500485
0
ARC
8
0
10
59.814447
20
0.106486
40
0.016209
50
284.663519
51
293.650339
0
ARC
8
0
10
71.241434
20
3.276834
40
1.772006
50
113.72657
51
117.210374
0
ARC
8
0
10
70.716684
20
4.297557
40
1.092778
50
-0.453816
51
8.985125
0
ARC
8
0
10
71.236742
20
4.383692
40
0.565664
50
8.594012
51
25.111069
0
ARC
8
0
10
80.963212
20
5.04927
40
0.106056
50
283.514581
51
296.318231
0
ARC
8
0
10
81.821305
20
4.94148
40
0.32857
50
-0.384627
51
27.416308
0
ARC
8
0
10
71.480618
20
4.50307
40
0.294212
50
24.215947
51
56.929599
0
ARC
8
0
10
-312.391728
20
852.563519
40
930.189958
50
293.642637
51
293.659496
0
LINE
8
0
10
82.431745
20
0.649275
11
82.431745
21
0.43615
0
ARC
8
0
10
80.989315
20
4.566974
40
0.227931
50
65.285456
51
90.331269
0
ARC
8
0
10
80.670881
20
7.734034
40
3.16217
50
298.312903
51
299.019171
0
ARC
8
0
10
71.531581
20
4.267604
40
0.546332
50
117.143497
51
128.607922
0
ARC
8
0
10
81.085383
20
4.215382
40
1.364374
50
45.808289
51
48.303377
0
ARC
8
0
10
78.790052
20
9.307452
40
4.887943
50
297.808853
51
299.155121
0
ARC
8
0
10
72.289756
20
1.231994
40
0.57827
50
296.859222
51
304.464809
0
LINE
8
0
10
83.930495
20
0.635525
11
83.930495
21
0.484275
0
ARC
8
0
10
71.461384
20
4.410527
40
0.387134
50
110.700599
51
117.548602
0
ARC
8
0
10
80.834374
20
4.404477
40
0.45414
50
29.760583
51
42.064006
0
LINE
8
0
10
83.59362
20
4.540525
11
83.59362
21
1.0824
0
ARC
8
0
10
72.437744
20
0.599021
40
4.704881
50
112.462147
51
113.942327
0
ARC
8
0
10
70.418568
20
3.487407
40
2.593024
50
40.028302
51
42.010815
0
ARC
8
0
10
70.973315
20
0.391534
40
0.24833
50
240.7262
51
268.59895
0
ARC
8
0
10
71.393316
20
0.962291
40
0.961444
50
220.448221
51
228.470546
0
ARC
8
0
10
81.27191
20
-21.991634
40
28.962956
50
110.065378
51
110.456584
0
ARC
8
0
10
71.486453
20
1.09527
40
1.117325
50
185.857822
51
215.97594
0
ARC
8
0
10
71.810546
20
1.144764
40
1.444872
50
179.910362
51
186.498676
0
ARC
8
0
10
75.246264
20
15.695333
40
12.192966
50
299.074204
51
299.645513
0
LINE
8
0
10
81.02237
20
-0.1551
11
80.91237
21
0.0649
0
ARC
8
0
10
69.79489
20
4.921917
40
4.934903
50
286.71908
51
288.05714
0
ARC
8
0
10
71.876436
20
1.381545
40
1.6011
50
216.068242
51
220.649296
0
LINE
8
0
10
81.32487
20
0.84865
11
81.32487
21
4.238025
0
ARC
8
0
10
81.772537
20
5.104181
40
0.237996
50
58.712827
51
69.920642
0
LINE
8
0
10
71.334947
20
5.213321
11
71.64116
21
5.322109
0
LINE
8
0
10
71.324539
20
4.772668
11
71.64116
21
4.749619
0
LINE
8
0
10
71.324539
20
0.850006
11
71.64116
21
0.79137
0
LINE
8
0
10
71.324539
20
0.230069
11
71.64116
21
0.34151
0
ENDSEC
0
EOF