0
SECTION
2
HEADER
0
ENDSEC
0
SECTION
2
TABLES
0
TABLE
2
LAYER
0
ENDTAB
0
ENDSEC
0
SECTION
2
ENTITIES
0
LINE
8
0
10
0.77
20
6.16
11
0.92
21
7
0
LINE
8
0
10
0.92
20
7
11
6.17
21
7
0
LINE
8
0
10
6.17
20
7
11
6.02
21
6.16
0
LINE
8
0
10
6.02
20
6.16
11
3.87
21
6.16
0
LINE
8
0
10
3.87
20
6.16
11
2.79
21
0
0
LINE
8
0
10
2.79
20
0
11
1.84
21
0
0
LINE
8
0
10
1.84
20
0
11
2.92
21
6.16
0
LINE
8
0
10
2.92
20
6.16
11
0.77
21
6.16
0
LINE
8
0
10
9.1
20
1.07
11
9.18
21
0.27
0
ARC
8
0
10
7.387519
20
2.50671
40
2.62674
50
258.23552
51
270.272235
0
ARC
8
0
10
7.304076
20
2.076087
40
2.188157
50
248.158696
51
258.07557
0
ARC
8
0
10
7.229375
20
1.917812
40
2.01348
50
224.163671
51
248.456194
0
ARC
8
0
10
7.271149
20
1.9393
40
2.058463
50
204.858681
51
223.782604
0
ARC
8
0
10
7.641808
20
2.126896
40
2.473683
50
200.514689
51
205.192144
0
ARC
8
0
10
7.731198
20
2.148833
40
2.565114
50
186.623335
51
200.273895
0
ARC
8
0
10
8.448178
20
2.242973
40
3.288185
50
179.877549
51
186.811751
0
ARC
8
0
10
8.641794
20
2.266815
40
3.481835
50
160.48385
51
180.276694
0
ARC
8
0
10
8.274711
20
2.407111
40
3.088987
50
143.590249
51
160.661973
0
ARC
8
0
10
8.087758
20
2.530551
40
2.865284
50
139.009179
51
143.357836
0
ARC
8
0
10
7.929506
20
2.663741
40
2.65847
50
114.904619
51
138.938692
0
ARC
8
0
10
7.90086
20
2.730454
40
2.585899
50
94.762591
51
114.951398
0
ARC
8
0
10
7.967174
20
2.17436
40
3.145642
50
89.948521
51
95.125318
0
ARC
8
0
10
7.979887
20
2.873011
40
2.447009
50
80.648591
51
90.231509
0
ARC
8
0
10
8.068557
20
3.416239
40
1.896592
50
69.266252
51
80.625114
0
ARC
8
0
10
8.020615
20
3.283541
40
2.03767
50
58.65891
51
69.326466
0
ARC
8
0
10
8.224841
20
3.624763
40
1.640016
50
48.338799
51
58.552214
0
ARC
8
0
10
8.363075
20
3.773382
40
1.437104
50
24.09148
51
48.517514
0
ARC
8
0
10
8.391827
20
3.779984
40
1.408173
50
0.000636
51
24.323771
0
ARC
8
0
10
7.867315
20
3.767375
40
1.932726
50
348.783038
51
0.374272
0
ARC
8
0
10
8.470562
20
3.642503
40
1.316722
50
328.627911
51
349.006698
0
ARC
8
0
10
8.619656
20
3.562873
40
1.148011
50
322.875968
51
328.147354
0
ARC
8
0
10
8.003367
20
4.029299
40
1.920904
50
296.818056
51
322.877781
0
ARC
8
0
10
7.581591
20
4.852131
40
2.845528
50
280.976912
51
296.922427
0
ARC
8
0
10
7.485728
20
5.265959
40
3.270074
50
278.870881
51
281.245187
0
ARC
8
0
10
7.002338
20
8.283844
40
6.326415
50
273.690331
51
278.981589
0
ARC
8
0
10
7.076297
20
7.228965
40
5.268966
50
270.040261
51
273.626069
0
ARC
8
0
10
7.077951
20
7.65316
40
5.69316
50
264.62853
51
270.020617
0
ARC
8
0
10
7.559018
20
12.796379
40
10.858828
50
263.477711
51
264.641806
0
ARC
8
0
10
7.196824
20
9.63646
40
7.67822
50
262.070171
51
263.484539
0
ARC
8
0
10
6.967523
20
7.961129
40
5.987275
50
261.475351
51
262.031696
0
ARC
8
0
10
8.171696
20
2.278552
40
2.105255
50
186.506319
51
198.578634
0
ARC
8
0
10
7.517904
20
2.051954
40
1.413353
50
198.315613
51
220.448849
0
ARC
8
0
10
7.382428
20
1.951139
40
1.244903
50
220.963164
51
227.725351
0
ARC
8
0
10
7.427438
20
2.01116
40
1.31961
50
228.032345
51
260.189387
0
ARC
8
0
10
7.54105
20
2.550985
40
1.871007
50
259.577854
51
270.274062
0
ARC
8
0
10
7.561668
20
3.967039
40
3.28706
50
269.796615
51
277.813961
0
ARC
8
0
10
7.678473
20
3.126902
40
2.438843
50
277.778773
51
288.194831
0
ARC
8
0
10
6.047318
20
8.012264
40
7.589304
50
288.377133
51
290.584467
0
ARC
8
0
10
6.838483
20
5.912204
40
5.345158
50
290.559836
51
293.464767
0
ARC
8
0
10
7.407722
20
4.591844
40
3.907326
50
293.517294
51
295.664707
0
ARC
8
0
10
7.727774
20
3.405924
40
3.455862
50
290.414366
51
294.848543
0
ARC
8
0
10
7.101146
20
5.081315
40
5.244602
50
286.992377
51
290.44588
0
ARC
8
0
10
6.530863
20
6.914881
40
7.16479
50
285.329371
51
287.068644
0
ARC
8
0
10
7.536074
20
3.291673
40
3.404763
50
276.016617
51
285.134342
0
ARC
8
0
10
7.410923
20
4.417058
40
4.537071
50
269.862059
51
276.098726
0
ARC
8
0
10
7.888348
20
2.960051
40
1.599991
50
89.582745
51
113.709203
0
ARC
8
0
10
7.943001
20
2.843578
40
1.728612
50
113.815501
51
135.740162
0
ARC
8
0
10
8.148902
20
2.647136
40
2.013177
50
135.825913
51
152.364841
0
ARC
8
0
10
8.425897
20
2.489126
40
2.331891
50
152.082212
51
154.854231
0
ARC
8
0
10
8.646087
20
2.394879
40
2.571275
50
155.038013
51
169.11554
0
ARC
8
0
10
9.010894
20
2.312701
40
2.94506
50
168.885718
51
171.264045
0
ARC
8
0
10
6.878524
20
6.329583
40
3.653495
50
257.696499
51
264.998418
0
ARC
8
0
10
6.991848
20
7.739109
40
5.067543
50
265.111417
51
267.795177
0
ARC
8
0
10
7.068483
20
9.656111
40
6.986075
50
267.771989
51
269.789911
0
ARC
8
0
10
7.079876
20
10.912876
40
8.242876
50
269.742747
51
270.000862
0
ARC
8
0
10
7.096554
20
7.675471
40
5.005498
50
269.810517
51
275.491905
0
ARC
8
0
10
7.273862
20
5.88882
40
3.210084
50
275.39369
51
283.537338
0
ARC
8
0
10
7.565676
20
4.697125
40
1.983195
50
283.399941
51
295.357223
0
ARC
8
0
10
8.045107
20
3.701381
40
0.878091
50
294.913333
51
319.62777
0
ARC
8
0
10
8.084594
20
3.642697
40
0.810221
50
320.980712
51
353.187708
0
ARC
8
0
10
7.720886
20
3.706619
40
1.179119
50
352.199857
51
0.16428
0
ARC
8
0
10
8.124412
20
3.715932
40
0.775611
50
359.561801
51
46.911201
0
ARC
8
0
10
7.928535
20
3.543596
40
1.035586
50
45.510171
51
47.73719
0
ARC
8
0
10
7.998317
20
3.612443
40
0.937719
50
48.06355
51
79.047988
0
ARC
8
0
10
7.90805
20
3.209351
40
1.350673
50
78.537225
51
90.341483
0
LINE
8
0
10
14.34
20
4.83
11
13.98
21
4.07
0
LINE
8
0
10
9.94
20
0.44
11
10.45
21
1.18
0
ARC
8
0
10
12.00394
20
1.188203
40
3.494219
50
55.561411
51
64.881597
0
ARC
8
0
10
11.769596
20
0.712815
40
4.024141
50
64.733735
51
67.10751
0
ARC
8
0
10
12.610364
20
2.679312
40
1.885496
50
67.398387
51
82.968764
0
ARC
8
0
10
12.535525
20
2.150016
40
2.41999
50
82.744201
51
90.13081
0
ARC
8
0
10
12.520398
20
2.254791
40
2.315229
50
89.762383
51
96.497989
0
ARC
8
0
10
12.419851
20
3.110198
40
1.453942
50
96.375966
51
106.205244
0
ARC
8
0
10
12.258904
20
3.652602
40
0.888177
50
106.000197
51
121.487355
0
ARC
8
0
10
12.131875
20
3.860277
40
0.644733
50
121.50029
51
137.332448
0
ARC
8
0
10
11.983618
20
3.99611
40
0.44366
50
137.254714
51
180.78909
0
ARC
8
0
10
12.096791
20
3.986768
40
0.556801
50
179.667446
51
195.15346
0
ARC
8
0
10
12.034612
20
3.972155
40
0.492968
50
195.403179
51
204.209657
0
ARC
8
0
10
12.016407
20
3.967764
40
0.474576
50
204.627521
51
216.133006
0
ARC
8
0
10
12.213114
20
4.109658
40
0.717117
50
216.021922
51
223.999586
0
ARC
8
0
10
12.41135
20
4.296739
40
0.989679
50
223.818425
51
227.677794
0
ARC
8
0
10
12.649179
20
4.563237
40
1.346854
50
227.830474
51
233.121969
0
ARC
8
0
10
13.117531
20
5.183583
40
2.124144
50
233.058222
51
236.843361
0
ARC
8
0
10
13.622856
20
5.950517
40
3.042584
50
236.775786
51
239.092022
0
ARC
8
0
10
15.287505
20
8.73459
40
6.286366
50
239.10853
51
240.77197
0
ARC
8
0
10
16.949183
20
11.695009
40
9.68125
50
240.744832
51
241.856337
0
ARC
8
0
10
18.914931
20
15.365761
40
13.845213
50
241.848482
51
242.724073
0
ARC
8
0
10
9.9718
20
-2.094878
40
5.772644
50
58.760305
51
63.250644
0
ARC
8
0
10
11.049368
20
-0.328715
40
3.703721
50
52.409031
51
58.843208
0
ARC
8
0
10
11.952781
20
0.836144
40
2.229609
50
43.008175
51
52.544321
0
ARC
8
0
10
12.328777
20
1.204935
40
1.703157
50
42.473914
51
42.56366
0
ARC
8
0
10
12.67778
20
1.52775
40
1.227759
50
5.299689
51
42.360155
0
ARC
8
0
10
12.262254
20
1.462513
40
1.647748
50
359.912621
51
6.223915
0
ARC
8
0
10
12.226472
20
1.45038
40
1.683555
50
348.363829
51
0.327388
0
ARC
8
0
10
12.626668
20
1.368088
40
1.274986
50
331.769797
51
348.35857
0
ARC
8
0
10
12.527301
20
1.428344
40
1.39105
50
303.991765
51
331.519084
0
ARC
8
0
10
12.184443
20
1.928686
40
1.99758
50
290.038205
51
304.122033
0
ARC
8
0
10
12.016768
20
2.360311
40
2.460548
50
284.67229
51
290.26245
0
ARC
8
0
10
11.874157
20
2.92874
40
3.046569
50
274.046489
51
284.559122
0
ARC
8
0
10
11.822753
20
3.517773
40
3.637774
50
269.956642
51
274.199428
0
ARC
8
0
10
11.805953
20
3.959369
40
4.079393
50
262.712141
51
270.1973
0
ARC
8
0
10
11.659727
20
2.841189
40
2.951699
50
252.588785
51
262.774215
0
ARC
8
0
10
11.539929
20
2.419947
40
2.513937
50
251.566212
51
252.321271
0
ARC
8
0
10
11.748188
20
3.082551
40
3.20842
50
242.518022
51
251.779565
0
ARC
8
0
10
11.453235
20
2.507069
40
2.561768
50
233.793331
51
242.430837
0
ARC
8
0
10
11.933706
20
3.015731
40
2.360359
50
231.053576
51
243.091828
0
ARC
8
0
10
12.175687
20
3.471388
40
2.87621
50
242.901191
51
247.715253
0
ARC
8
0
10
11.835001
20
2.660508
40
1.996718
50
247.937547
51
264.022028
0
ARC
8
0
10
11.896228
20
3.140008
40
2.480011
50
263.768924
51
270.087154
0
ARC
8
0
10
11.910013
20
2.882555
40
2.222578
50
269.741867
51
277.41315
0
ARC
8
0
10
12.014288
20
2.106029
40
1.439092
50
277.285222
51
288.565385
0
ARC
8
0
10
12.165194
20
1.656901
40
0.965289
50
288.562055
51
303.28868
0
ARC
8
0
10
12.262823
20
1.511745
40
0.790369
50
303.148024
51
317.308665
0
ARC
8
0
10
12.481579
20
1.318258
40
0.498424
50
316.606111
51
0.200191
0
ARC
8
0
10
12.313721
20
1.324255
40
0.666293
50
359.634119
51
21.181304
0
ARC
8
0
10
12.433231
20
1.364597
40
0.540308
50
21.771419
51
33.980598
0
ARC
8
0
10
12.214581
20
1.21928
40
0.80284
50
33.858868
51
42.142456
0
ARC
8
0
10
12.017197
20
1.046009
40
1.065464
50
41.929344
51
45.045174
0
ARC
8
0
10
11.886541
20
0.909616
40
1.254306
50
45.223695
51
51.460192
0
ARC
8
0
10
11.491964
20
0.416055
40
1.886202
50
51.42644
51
56.359738
0
ARC
8
0
10
11.104975
20
-0.156506
40
2.577266
50
56.248681
51
58.671731
0
ARC
8
0
10
9.367508
20
-3.017625
40
5.924621
50
58.705223
51
60.593805
0
ARC
8
0
10
7.920904
20
-5.573643
40
8.861604
50
60.560021
51
61.763058
0
ARC
8
0
10
6.307861
20
-8.574098
40
12.268162
50
61.755978
51
62.724427
0
ARC
8
0
10
14.812263
20
8.113606
40
6.462007
50
240.843399
51
243.510601
0
ARC
8
0
10
13.811372
20
6.324998
40
4.4124
50
237.294497
51
240.877975
0
ARC
8
0
10
13.12409
20
5.247583
40
3.134449
50
234.524557
51
237.224491
0
ARC
8
0
10
12.57131
20
4.479647
40
2.188265
50
227.873972
51
234.642107
0
ARC
8
0
10
12.153133
20
4.019964
40
1.566835
50
218.688513
51
227.940191
0
ARC
8
0
10
11.956426
20
3.854854
40
1.310099
50
217.352198
51
218.429683
0
ARC
8
0
10
11.880389
20
3.805217
40
1.219559
50
200.800468
51
217.665794
0
ARC
8
0
10
11.795026
20
3.767839
40
1.126496
50
195.594822
51
200.565068
0
ARC
8
0
10
12.268297
20
3.893339
40
1.616095
50
185.176356
51
195.369654
0
ARC
8
0
10
12.693712
20
3.93693
40
2.043714
50
179.91394
51
185.317434
0
ARC
8
0
10
11.784473
20
3.948984
40
1.134508
50
151.230994
51
180.45374
0
ARC
8
0
10
11.931744
20
3.863166
40
1.304911
50
126.013778
51
151.04012
0
ARC
8
0
10
12.060155
20
3.707525
40
1.506359
50
125.753056
51
126.483718
0
ARC
8
0
10
12.228183
20
3.459521
40
1.805823
50
113.361137
51
125.481945
0
ARC
8
0
10
12.450826
20
2.959465
40
2.353178
50
106.563186
51
113.509824
0
ARC
8
0
10
12.483512
20
2.835226
40
2.481583
50
95.090131
51
106.468806
0
ARC
8
0
10
12.545983
20
2.236232
40
3.08377
50
89.925366
51
95.258841
0
ARC
8
0
10
12.562942
20
1.598755
40
3.721267
50
81.993654
51
90.199259
0
ARC
8
0
10
12.686704
20
2.478702
40
2.832659
50
72.149746
51
81.993547
0
ARC
8
0
10
12.174806
20
0.904246
40
4.488237
50
66.030155
51
72.090553
0
ARC
8
0
10
12.587784
20
1.836309
40
3.468782
50
59.659446
51
66.008794
0
LINE
8
0
10
14.83
20
4.23
11
14.96
21
5.01
0
LINE
8
0
10
14.96
20
5.01
11
15.88
21
5.01
0
LINE
8
0
10
15.88
20
5.01
11
16.36
21
6.65
0
LINE
8
0
10
16.36
20
6.65
11
17.05
21
6.65
0
LINE
8
0
10
17.05
20
6.65
11
16.76
21
5.01
0
LINE
8
0
10
16.76
20
5.01
11
18.2
21
5.01
0
LINE
8
0
10
18.2
20
5.01
11
18.07
21
4.23
0
LINE
8
0
10
18.07
20
4.23
11
16.62
21
4.23
0
LINE
8
0
10
16.62
20
4.23
11
16.2
21
1.8
0
LINE
8
0
10
17.77
20
0.94
11
17.88
21
0.16
0
LINE
8
0
10
15.31
20
1.84
11
15.72
21
4.23
0
LINE
8
0
10
15.72
20
4.23
11
14.83
21
4.23
0
ARC
8
0
10
18.241217
20
1.386746
40
2.08263
50
168.554886
51
175.288425
0
ARC
8
0
10
17.88816
20
1.418484
40
1.728161
50
175.375654
51
179.949735
0
ARC
8
0
10
17.121368
20
1.412279
40
0.961399
50
179.539885
51
192.897347
0
ARC
8
0
10
16.806694
20
1.334426
40
0.637312
50
192.389193
51
226.127308
0
ARC
8
0
10
16.83473
20
1.37535
40
0.686292
50
226.807961
51
257.981754
0
ARC
8
0
10
16.912414
20
1.700311
40
1.020339
50
257.514708
51
270.425995
0
ARC
8
0
10
16.926126
20
2.324561
40
1.644573
50
269.786587
51
276.915485
0
ARC
8
0
10
16.990713
20
1.806782
40
1.122785
50
276.824943
51
286.884896
0
ARC
8
0
10
17.066557
20
1.544852
40
0.850125
50
287.121013
51
293.460063
0
ARC
8
0
10
15.18037
20
5.881553
40
5.579255
50
293.498957
51
296.52956
0
ARC
8
0
10
15.527469
20
5.177592
40
4.794386
50
296.57593
51
297.887765
0
ARC
8
0
10
17.030916
20
1.640745
40
1.706913
50
293.048112
51
299.830684
0
ARC
8
0
10
16.71215
20
2.383099
40
2.514808
50
288.113005
51
293.109321
0
ARC
8
0
10
16.482196
20
3.062796
40
3.232322
50
286.588296
51
288.241448
0
ARC
8
0
10
16.838946
20
1.891666
40
2.008098
50
275.850778
51
286.372774
0
ARC
8
0
10
16.774953
20
2.459398
40
2.579403
50
269.889991
51
275.979317
0
ARC
8
0
10
16.769905
20
1.701298
40
1.821298
50
252.426418
51
270.002984
0
ARC
8
0
10
16.632377
20
1.299388
40
1.396655
50
230.287286
51
252.826857
0
ARC
8
0
10
16.524925
20
1.157654
40
1.218996
50
210.946206
51
229.915886
0
ARC
8
0
10
16.767218
20
1.312356
40
1.506373
50
204.821137
51
211.253739
0
ARC
8
0
10
16.617388
20
1.23563
40
1.338192
50
189.999647
51
204.532508
0
ARC
8
0
10
17.15741
20
1.334896
40
1.887252
50
180.592769
51
190.120692
0
ARC
8
0
10
17.56625
20
1.349892
40
2.296251
50
179.997292
51
180.861385
0
ARC
8
0
10
17.867294
20
1.347287
40
2.597295
50
174.970241
51
179.94015
0
ARC
8
0
10
19.93929
20
1.166231
40
4.677187
50
173.664927
51
174.986157
0
ARC
8
0
10
21.912844
20
0.948464
40
6.662718
50
172.670133
51
173.676368
0
ARC
8
0
10
23.473023
20
0.751242
40
8.23531
50
172.402911
51
172.694067
0
ENDSEC
0
EOF